<svg width="28" height="21" viewBox="0 0 28 21" fill="none" xmlns="http://www.w3.org/2000/svg">
<g id="Frame" clip-path="url(#clip0_288_4682)">
<g id="Union" filter="url(#filter0_b_288_4682)">
<mask id="path-1-inside-1_288_4682" fill="white">
<path fill-rule="evenodd" clip-rule="evenodd" d="M13.2602 4.01616H15.0398C15.0398 3.7369 15.0419 3.46379 15.0439 3.19441C15.0478 2.66654 15.0517 2.15298 15.0398 1.63548C15.0218 1.16833 14.6443 0.826954 14.1949 0.800003C13.7455 0.782036 13.2961 1.09646 13.2692 1.54565C13.244 2.11679 13.2496 2.68793 13.2553 3.26519C13.2577 3.51421 13.2602 3.76437 13.2602 4.01616ZM1.17163 12.7875C0.89218 13.7184 0.613428 14.647 0.649991 15.641C0.649991 15.7009 0.648992 15.7608 0.647993 15.8207C0.645996 15.9405 0.643999 16.0603 0.649991 16.18C0.847727 19.3064 3.82276 21.3277 6.79779 20.3395C8.11903 19.8993 9.06277 19.0099 9.61104 17.7342C10.1144 16.5753 10.9233 15.7219 12.1097 15.2996C13.3141 14.8684 14.5634 14.8774 15.7858 15.1739C17.125 15.5063 17.9879 16.4136 18.5451 17.6623C19.4709 19.7555 21.7898 20.9504 23.92 20.4563C26.4815 19.8633 28.1713 17.1772 27.4972 14.6349C26.913 12.4069 26.2838 10.1969 25.5827 8.00491C24.4862 4.57315 20.0731 3.19865 17.3857 5.66017C17.2778 5.75899 17.0891 5.82188 16.9453 5.82188C15.0578 5.83086 13.1703 5.83086 11.2828 5.82188C11.121 5.82188 10.9233 5.75899 10.8064 5.65119C8.04713 3.15373 3.53514 4.61806 2.51051 8.18458C2.41389 8.51473 2.31671 8.84488 2.21952 9.17503C1.92797 10.1655 1.63643 11.1559 1.36004 12.1464C1.29973 12.3607 1.23566 12.5742 1.17163 12.7875ZM19.3249 11.1629C19.4251 11.0658 19.5348 10.9596 19.6596 10.8348C19.5639 10.7497 19.4724 10.6731 19.3856 10.6004C19.2524 10.4888 19.1303 10.3866 19.0215 10.2778C18.5631 9.81961 18.5361 9.28059 18.9226 8.89429C19.3091 8.50799 19.8484 8.55291 20.3068 9.01108C20.4561 9.16035 20.5998 9.31525 20.7736 9.50248C20.8194 9.55187 20.8673 9.60352 20.918 9.6579C20.9899 9.57805 21.0578 9.50057 21.1237 9.42546C21.2802 9.24703 21.425 9.08195 21.5831 8.93023C21.9875 8.54393 22.5088 8.53494 22.8684 8.88531C23.2459 9.25364 23.2369 9.79266 22.8414 10.2059C22.6905 10.3632 22.5253 10.5062 22.3283 10.6768C22.2553 10.7399 22.178 10.8068 22.0954 10.8797C22.2079 10.9849 22.3146 11.0784 22.416 11.1673C22.5656 11.2985 22.7038 11.4196 22.8324 11.5535C23.2369 11.9757 23.2369 12.5147 22.8684 12.8741C22.4909 13.2424 21.9696 13.2244 21.5561 12.8112C21.422 12.6713 21.2993 12.5201 21.1633 12.3526C21.0897 12.262 21.0122 12.1665 20.927 12.0655C20.8213 12.1778 20.7289 12.2791 20.6437 12.3727C20.497 12.5336 20.3713 12.6715 20.2349 12.8022C19.8035 13.2154 19.2911 13.2424 18.9136 12.8741C18.5272 12.4967 18.5451 11.9577 18.9676 11.5175C19.0795 11.4006 19.1942 11.2895 19.3249 11.1629ZM6.62294 9.9882C6.72746 9.98923 6.83581 9.9903 6.95059 9.9903C6.95059 9.89821 6.94997 9.81232 6.94938 9.73085C6.94773 9.50236 6.94633 9.30857 6.95958 9.1099C6.97755 8.57088 7.35505 8.18458 7.85838 8.19356C8.35272 8.19356 8.73022 8.57986 8.74819 9.12787C8.75407 9.30394 8.75227 9.48001 8.75031 9.67112C8.74927 9.77253 8.74819 9.87817 8.74819 9.9903C8.85214 9.9903 8.95296 9.98926 9.05173 9.98824C9.24333 9.98627 9.42719 9.98437 9.61104 9.9903C10.1503 10.0083 10.5368 10.3856 10.5368 10.8797C10.5368 11.3828 10.1503 11.7601 9.61104 11.778C9.43626 11.7839 9.26525 11.7821 9.07354 11.7802C8.9695 11.7792 8.85936 11.778 8.73921 11.778C8.73921 11.8797 8.74026 11.9771 8.74129 12.0717C8.74326 12.2531 8.74511 12.4244 8.73921 12.5956C8.73022 13.1795 8.37968 13.5658 7.85838 13.5748C7.32809 13.5838 6.95958 13.1885 6.95059 12.5776V11.778C6.83543 11.778 6.72673 11.7791 6.62226 11.7802C6.42506 11.7821 6.24292 11.7839 6.06078 11.778C5.53947 11.7511 5.16198 11.3828 5.15299 10.9066C5.13501 10.4125 5.51251 10.0172 6.05179 9.9903C6.24014 9.98442 6.42463 9.98624 6.62294 9.9882Z"/>
</mask>
<path fill-rule="evenodd" clip-rule="evenodd" d="M13.2602 4.01616H15.0398C15.0398 3.7369 15.0419 3.46379 15.0439 3.19441C15.0478 2.66654 15.0517 2.15298 15.0398 1.63548C15.0218 1.16833 14.6443 0.826954 14.1949 0.800003C13.7455 0.782036 13.2961 1.09646 13.2692 1.54565C13.244 2.11679 13.2496 2.68793 13.2553 3.26519C13.2577 3.51421 13.2602 3.76437 13.2602 4.01616ZM1.17163 12.7875C0.89218 13.7184 0.613428 14.647 0.649991 15.641C0.649991 15.7009 0.648992 15.7608 0.647993 15.8207C0.645996 15.9405 0.643999 16.0603 0.649991 16.18C0.847727 19.3064 3.82276 21.3277 6.79779 20.3395C8.11903 19.8993 9.06277 19.0099 9.61104 17.7342C10.1144 16.5753 10.9233 15.7219 12.1097 15.2996C13.3141 14.8684 14.5634 14.8774 15.7858 15.1739C17.125 15.5063 17.9879 16.4136 18.5451 17.6623C19.4709 19.7555 21.7898 20.9504 23.92 20.4563C26.4815 19.8633 28.1713 17.1772 27.4972 14.6349C26.913 12.4069 26.2838 10.1969 25.5827 8.00491C24.4862 4.57315 20.0731 3.19865 17.3857 5.66017C17.2778 5.75899 17.0891 5.82188 16.9453 5.82188C15.0578 5.83086 13.1703 5.83086 11.2828 5.82188C11.121 5.82188 10.9233 5.75899 10.8064 5.65119C8.04713 3.15373 3.53514 4.61806 2.51051 8.18458C2.41389 8.51473 2.31671 8.84488 2.21952 9.17503C1.92797 10.1655 1.63643 11.1559 1.36004 12.1464C1.29973 12.3607 1.23566 12.5742 1.17163 12.7875ZM19.3249 11.1629C19.4251 11.0658 19.5348 10.9596 19.6596 10.8348C19.5639 10.7497 19.4724 10.6731 19.3856 10.6004C19.2524 10.4888 19.1303 10.3866 19.0215 10.2778C18.5631 9.81961 18.5361 9.28059 18.9226 8.89429C19.3091 8.50799 19.8484 8.55291 20.3068 9.01108C20.4561 9.16035 20.5998 9.31525 20.7736 9.50248C20.8194 9.55187 20.8673 9.60352 20.918 9.6579C20.9899 9.57805 21.0578 9.50057 21.1237 9.42546C21.2802 9.24703 21.425 9.08195 21.5831 8.93023C21.9875 8.54393 22.5088 8.53494 22.8684 8.88531C23.2459 9.25364 23.2369 9.79266 22.8414 10.2059C22.6905 10.3632 22.5253 10.5062 22.3283 10.6768C22.2553 10.7399 22.178 10.8068 22.0954 10.8797C22.2079 10.9849 22.3146 11.0784 22.416 11.1673C22.5656 11.2985 22.7038 11.4196 22.8324 11.5535C23.2369 11.9757 23.2369 12.5147 22.8684 12.8741C22.4909 13.2424 21.9696 13.2244 21.5561 12.8112C21.422 12.6713 21.2993 12.5201 21.1633 12.3526C21.0897 12.262 21.0122 12.1665 20.927 12.0655C20.8213 12.1778 20.7289 12.2791 20.6437 12.3727C20.497 12.5336 20.3713 12.6715 20.2349 12.8022C19.8035 13.2154 19.2911 13.2424 18.9136 12.8741C18.5272 12.4967 18.5451 11.9577 18.9676 11.5175C19.0795 11.4006 19.1942 11.2895 19.3249 11.1629ZM6.62294 9.9882C6.72746 9.98923 6.83581 9.9903 6.95059 9.9903C6.95059 9.89821 6.94997 9.81232 6.94938 9.73085C6.94773 9.50236 6.94633 9.30857 6.95958 9.1099C6.97755 8.57088 7.35505 8.18458 7.85838 8.19356C8.35272 8.19356 8.73022 8.57986 8.74819 9.12787C8.75407 9.30394 8.75227 9.48001 8.75031 9.67112C8.74927 9.77253 8.74819 9.87817 8.74819 9.9903C8.85214 9.9903 8.95296 9.98926 9.05173 9.98824C9.24333 9.98627 9.42719 9.98437 9.61104 9.9903C10.1503 10.0083 10.5368 10.3856 10.5368 10.8797C10.5368 11.3828 10.1503 11.7601 9.61104 11.778C9.43626 11.7839 9.26525 11.7821 9.07354 11.7802C8.9695 11.7792 8.85936 11.778 8.73921 11.778C8.73921 11.8797 8.74026 11.9771 8.74129 12.0717C8.74326 12.2531 8.74511 12.4244 8.73921 12.5956C8.73022 13.1795 8.37968 13.5658 7.85838 13.5748C7.32809 13.5838 6.95958 13.1885 6.95059 12.5776V11.778C6.83543 11.778 6.72673 11.7791 6.62226 11.7802C6.42506 11.7821 6.24292 11.7839 6.06078 11.778C5.53947 11.7511 5.16198 11.3828 5.15299 10.9066C5.13501 10.4125 5.51251 10.0172 6.05179 9.9903C6.24014 9.98442 6.42463 9.98624 6.62294 9.9882Z" fill="#E60000"/>
<path d="M15.0398 4.01616V5.01615H16.0398V4.01616H15.0398ZM13.2602 4.01616H12.2602V5.01615H13.2602V4.01616ZM15.0439 3.19441L16.0438 3.20193V3.20192L15.0439 3.19441ZM15.0398 1.63548L16.0395 1.61249L16.0394 1.60476L16.0391 1.59703L15.0398 1.63548ZM14.1949 0.800003L14.2548 -0.198204L14.2448 -0.1988L14.2349 -0.199199L14.1949 0.800003ZM13.2692 1.54565L12.271 1.48573L12.2705 1.49372L12.2701 1.50171L13.2692 1.54565ZM13.2553 3.26519L14.2552 3.2554V3.2554L13.2553 3.26519ZM0.649991 15.641H1.64999V15.6226L1.64931 15.6043L0.649991 15.641ZM1.17163 12.7875L2.12941 13.075L2.12941 13.075L1.17163 12.7875ZM0.647993 15.8207L-0.351868 15.804L0.647993 15.8207ZM0.649991 16.18L-0.348847 16.23L-0.348015 16.2432L0.649991 16.18ZM6.79779 20.3395L7.11302 21.2885L7.11388 21.2882L6.79779 20.3395ZM9.61104 17.7342L8.69381 17.3358L8.6923 17.3394L9.61104 17.7342ZM12.1097 15.2996L12.445 16.2418L12.4468 16.2411L12.1097 15.2996ZM15.7858 15.1739L16.0267 14.2033L16.0215 14.202L15.7858 15.1739ZM18.5451 17.6623L19.4597 17.2579L19.4583 17.2548L18.5451 17.6623ZM23.92 20.4563L23.6945 19.482L23.694 19.4821L23.92 20.4563ZM27.4972 14.6349L26.5299 14.8885L26.5306 14.8911L27.4972 14.6349ZM25.5827 8.00491L24.6302 8.30927L24.6303 8.30953L25.5827 8.00491ZM17.3857 5.66017L16.7102 4.92275L16.7101 4.92285L17.3857 5.66017ZM16.9453 5.82188V4.82187L16.9405 4.82189L16.9453 5.82188ZM11.2828 5.82188L11.2876 4.82188H11.2828V5.82188ZM10.8064 5.65119L11.4846 4.91619L11.4775 4.90978L10.8064 5.65119ZM2.51051 8.18458L3.47027 8.46546L3.47163 8.4607L2.51051 8.18458ZM2.21952 9.17503L1.26022 8.89265L1.26022 8.89265L2.21952 9.17503ZM1.36004 12.1464L2.32266 12.4172L2.32325 12.4152L1.36004 12.1464ZM19.6596 10.8348L20.3666 11.542L21.117 10.7919L20.3238 10.0872L19.6596 10.8348ZM19.3249 11.1629L20.0206 11.8812L20.0206 11.8812L19.3249 11.1629ZM19.3856 10.6004L18.7435 11.367L18.7435 11.367L19.3856 10.6004ZM19.0215 10.2778L19.7284 9.5705L19.7284 9.5705L19.0215 10.2778ZM18.9226 8.89429L18.2157 8.18701L18.2157 8.18701L18.9226 8.89429ZM20.3068 9.01108L21.0137 8.3038L21.0137 8.3038L20.3068 9.01108ZM20.7736 9.50248L20.0405 10.1826L20.0405 10.1826L20.7736 9.50248ZM20.918 9.6579L20.1862 10.3395L20.9305 11.1385L21.6611 10.327L20.918 9.6579ZM21.1237 9.42546L20.3719 8.76609L20.3719 8.76609L21.1237 9.42546ZM21.5831 8.93023L20.8924 8.20707L20.8907 8.20867L21.5831 8.93023ZM22.8684 8.88531L23.5667 8.16956L23.5663 8.16914L22.8684 8.88531ZM22.8414 10.2059L23.5632 10.898L23.5639 10.8973L22.8414 10.2059ZM22.3283 10.6768L21.6739 9.92062L21.6739 9.92062L22.3283 10.6768ZM22.0954 10.8797L21.434 10.1297L20.6081 10.858L21.4124 11.6101L22.0954 10.8797ZM22.416 11.1673L21.7568 11.9193L21.7568 11.9193L22.416 11.1673ZM22.8324 11.5535L23.5546 10.8617L23.5536 10.8607L22.8324 11.5535ZM22.8684 12.8741L22.1702 12.1581L22.17 12.1583L22.8684 12.8741ZM21.5561 12.8112L20.8343 13.5032L20.8417 13.5109L20.8492 13.5184L21.5561 12.8112ZM21.1633 12.3526L21.9397 11.7224L21.9397 11.7224L21.1633 12.3526ZM20.927 12.0655L21.6911 11.4205L20.9677 10.5635L20.1989 11.38L20.927 12.0655ZM20.6437 12.3727L21.3828 13.0462L21.3828 13.0462L20.6437 12.3727ZM20.2349 12.8022L20.9266 13.5243L20.9266 13.5243L20.2349 12.8022ZM18.9136 12.8741L18.2151 13.5896L18.2153 13.5898L18.9136 12.8741ZM18.9676 11.5175L19.6891 12.2099L19.69 12.2089L18.9676 11.5175ZM6.95059 9.9903V10.9903H7.95059V9.9903H6.95059ZM6.62294 9.9882L6.61306 10.9881H6.61307L6.62294 9.9882ZM6.94938 9.73085L7.94935 9.72362V9.72362L6.94938 9.73085ZM6.95958 9.1099L7.95736 9.17645L7.95847 9.15985L7.95902 9.14323L6.95958 9.1099ZM7.85838 8.19356L7.84053 9.19341L7.84946 9.19356H7.85838V8.19356ZM8.74819 9.12787L7.74873 9.16065L7.74875 9.1612L8.74819 9.12787ZM8.75031 9.67112L9.75026 9.68135V9.68134L8.75031 9.67112ZM8.74819 9.9903H7.74819V10.9903H8.74819V9.9903ZM9.05173 9.98824L9.06203 10.9882H9.06203L9.05173 9.98824ZM9.61104 9.9903L9.64434 8.99085L9.64327 8.99082L9.61104 9.9903ZM9.61104 11.778L9.64434 12.7775H9.64434L9.61104 11.778ZM9.07354 11.7802L9.08363 10.7803H9.08363L9.07354 11.7802ZM8.73921 11.778V10.778H7.73921V11.778H8.73921ZM8.74129 12.0717L7.74135 12.0826V12.0826L8.74129 12.0717ZM8.73921 12.5956L7.7398 12.5611L7.73947 12.5706L7.73932 12.5802L8.73921 12.5956ZM7.85838 13.5748L7.87532 14.5746L7.87561 14.5746L7.85838 13.5748ZM6.95059 12.5776H5.95059V12.585L5.9507 12.5923L6.95059 12.5776ZM6.95059 11.778H7.95059V10.778H6.95059V11.778ZM6.62226 11.7802L6.63217 12.7801L6.63217 12.7801L6.62226 11.7802ZM6.06078 11.778L6.00915 12.7767L6.01885 12.7772L6.02855 12.7775L6.06078 11.778ZM5.15299 10.9066L6.15281 10.8878L6.15264 10.879L6.15233 10.8703L5.15299 10.9066ZM6.05179 9.9903L6.02057 8.99079L6.01122 8.99108L6.00188 8.99154L6.05179 9.9903ZM15.0398 3.01616H13.2602V5.01615H15.0398V3.01616ZM14.0439 3.1869C14.0419 3.45572 14.0398 3.73254 14.0398 4.01616H16.0398C16.0398 3.74125 16.0418 3.47185 16.0438 3.20193L14.0439 3.1869ZM14.0401 1.65848C14.0516 2.15817 14.0479 2.65646 14.0439 3.1869L16.0438 3.20192C16.0478 2.67661 16.0518 2.14779 16.0395 1.61249L14.0401 1.65848ZM14.1351 1.79821C14.1252 1.79762 14.1064 1.7931 14.0856 1.77306C14.0746 1.76251 14.0631 1.74753 14.0542 1.72807C14.045 1.70788 14.0411 1.68845 14.0405 1.67394L16.0391 1.59703C15.9993 0.563516 15.1633 -0.143717 14.2548 -0.198204L14.1351 1.79821ZM14.2674 1.60557C14.2607 1.71672 14.201 1.77668 14.1842 1.78964C14.1756 1.79622 14.171 1.79762 14.1703 1.79785C14.1694 1.79815 14.1648 1.7996 14.155 1.7992L14.2349 -0.199199C13.394 -0.232817 12.339 0.352366 12.271 1.48573L14.2674 1.60557ZM14.2552 3.2554C14.2495 2.67359 14.2445 2.12938 14.2682 1.58958L12.2701 1.50171C12.2436 2.10419 12.2497 2.70226 12.2553 3.27498L14.2552 3.2554ZM14.2602 4.01616C14.2602 3.75867 14.2577 3.50363 14.2552 3.2554L12.2553 3.27498C12.2578 3.52478 12.2602 3.77007 12.2602 4.01616H14.2602ZM1.64931 15.6043C1.61982 14.8025 1.8423 14.0314 2.12941 13.075L0.21385 12.5C-0.0579446 13.4054 -0.392968 14.4915 -0.349333 15.6778L1.64931 15.6043ZM1.64785 15.8374C1.64883 15.7789 1.64999 15.7106 1.64999 15.641H-0.350009C-0.350009 15.6912 -0.350846 15.7427 -0.351868 15.804L1.64785 15.8374ZM1.64874 16.1301C1.64469 16.0491 1.64576 15.9627 1.64785 15.8374L-0.351868 15.804C-0.353772 15.9183 -0.356695 16.0714 -0.34876 16.23L1.64874 16.1301ZM6.48256 19.3905C4.134 20.1706 1.80462 18.5931 1.648 16.1169L-0.348015 16.2432C-0.109161 20.0196 3.51152 22.4848 7.11302 21.2885L6.48256 19.3905ZM8.6923 17.3394C8.25322 18.361 7.52399 19.0435 6.4817 19.3908L7.11388 21.2882C8.71408 20.7551 9.87233 19.6588 10.5298 18.1291L8.6923 17.3394ZM11.7744 14.3575C10.2862 14.8872 9.28891 15.9657 8.69382 17.3358L10.5283 18.1326C10.9398 17.185 11.5603 16.5566 12.445 16.2418L11.7744 14.3575ZM16.0215 14.202C14.6508 13.8696 13.1973 13.8481 11.7726 14.3582L12.4468 16.2411C13.4309 15.8888 14.4761 15.8852 15.5501 16.1457L16.0215 14.202ZM19.4583 17.2548C18.8114 15.8051 17.7407 14.6287 16.0267 14.2033L15.5449 16.1444C16.5094 16.3838 17.1644 17.0222 17.6319 18.0699L19.4583 17.2548ZM23.694 19.4821C22.0566 19.8619 20.2019 18.9361 19.4597 17.2579L17.6306 18.0668C18.7399 20.575 21.523 22.0388 24.1459 21.4304L23.694 19.4821ZM26.5306 14.8911C27.054 16.8651 25.7289 19.0111 23.6945 19.482L24.1455 21.4305C27.2342 20.7156 29.2886 17.4894 28.4638 14.3786L26.5306 14.8911ZM24.6303 8.30953C25.3249 10.4813 25.9492 12.6738 26.5299 14.8885L28.4645 14.3812C27.8768 12.14 27.2428 9.91255 26.5352 7.70028L24.6303 8.30953ZM18.0611 6.39759C20.1619 4.47338 23.7354 5.50889 24.6302 8.30927L26.5353 7.70054C25.237 3.6374 19.9843 1.92391 16.7102 4.92275L18.0611 6.39759ZM16.9453 6.82188C17.2977 6.82188 17.7405 6.69133 18.0612 6.39749L16.7101 4.92285C16.7495 4.88677 16.7824 4.86621 16.8005 4.85601C16.8196 4.84525 16.8338 4.83947 16.8428 4.83629C16.8519 4.83303 16.8621 4.83012 16.875 4.8277C16.887 4.82544 16.9105 4.82188 16.9453 4.82188V6.82188ZM11.2781 6.82187C13.1687 6.83086 15.0594 6.83086 16.95 6.82187L16.9405 4.82189C15.0562 4.83086 13.1719 4.83086 11.2876 4.82189L11.2781 6.82187ZM10.1283 6.38615C10.4689 6.70036 10.9284 6.82188 11.2828 6.82188V4.82188C11.323 4.82188 11.3436 4.82806 11.3552 4.83207C11.3635 4.83495 11.3777 4.84056 11.397 4.8514C11.4157 4.86188 11.4473 4.88188 11.4846 4.91622L10.1283 6.38615ZM3.47163 8.4607C4.30936 5.54477 7.97076 4.43339 10.1354 6.3926L11.4775 4.90978C8.12349 1.87407 2.76093 3.69136 1.54939 7.90846L3.47163 8.4607ZM3.17883 9.45741C3.27597 9.12739 3.37338 8.79648 3.47025 8.46546L1.55077 7.9037C1.4544 8.23298 1.35744 8.56238 1.26022 8.89265L3.17883 9.45741ZM2.32325 12.4152C2.59741 11.4327 2.88694 10.449 3.17883 9.45741L1.26022 8.89265C0.969011 9.88195 0.675444 10.8792 0.396842 11.8776L2.32325 12.4152ZM2.12941 13.075C2.19302 12.8631 2.2596 12.6413 2.32266 12.4172L0.397427 11.8755C0.339847 12.0801 0.278297 12.2853 0.21385 12.5L2.12941 13.075ZM18.9527 10.1275C18.834 10.2461 18.7296 10.3473 18.6291 10.4446L20.0206 11.8812C20.1207 11.7842 20.2355 11.6731 20.3666 11.542L18.9527 10.1275ZM18.7435 11.367C18.8314 11.4406 18.9122 11.5084 18.9955 11.5823L20.3238 10.0872C20.2156 9.99106 20.1134 9.90548 20.0277 9.83374L18.7435 11.367ZM18.3146 10.985C18.4602 11.1306 18.6176 11.2615 18.7435 11.367L20.0277 9.83375C19.8872 9.71608 19.8005 9.64254 19.7284 9.5705L18.3146 10.985ZM18.2157 8.18701C17.8391 8.56345 17.621 9.06917 17.6574 9.62439C17.6926 10.1622 17.9574 10.628 18.3146 10.9851L19.7284 9.5705C19.6272 9.46933 19.6494 9.43662 19.6531 9.49377C19.6549 9.52153 19.6502 9.5525 19.6395 9.57934C19.6292 9.60499 19.6199 9.61118 19.6296 9.60157L18.2157 8.18701ZM21.0137 8.3038C20.6629 7.95316 20.2042 7.68431 19.6715 7.63953C19.1157 7.59279 18.6009 7.80202 18.2157 8.18701L19.6296 9.60157C19.6361 9.595 19.6258 9.60725 19.5954 9.6189C19.564 9.63095 19.5307 9.63474 19.504 9.63249C19.4521 9.62813 19.4923 9.61083 19.5998 9.71836L21.0137 8.3038ZM21.5066 8.82232C21.3357 8.63809 21.1788 8.46883 21.0137 8.3038L19.5998 9.71835C19.7334 9.85188 19.864 9.99241 20.0405 10.1826L21.5066 8.82232ZM21.6497 8.97631C21.5998 8.92274 21.5525 8.87179 21.5066 8.82232L20.0405 10.1826C20.0863 10.2319 20.1348 10.2843 20.1862 10.3395L21.6497 8.97631ZM20.3719 8.76609C20.3054 8.84184 20.2417 8.91452 20.1748 8.98876L21.6611 10.327C21.738 10.2416 21.8102 10.1593 21.8755 10.0848L20.3719 8.76609ZM20.8907 8.20867C20.6961 8.3954 20.523 8.59378 20.3719 8.76609L21.8755 10.0848C22.0374 9.90028 22.1538 9.76851 22.2754 9.65178L20.8907 8.20867ZM23.5663 8.16914C23.2028 7.8149 22.7237 7.61672 22.2128 7.63196C21.7075 7.64704 21.2482 7.86728 20.8924 8.20707L22.2738 9.65338C22.2987 9.62961 22.3127 9.62363 22.3115 9.62419C22.3098 9.62492 22.2963 9.63036 22.2724 9.63107C22.2481 9.6318 22.2228 9.62727 22.2007 9.61839C22.1788 9.60961 22.1693 9.60041 22.1704 9.60148L23.5663 8.16914ZM23.5639 10.8973C23.9098 10.5358 24.1346 10.0657 24.1446 9.54809C24.1547 9.02321 23.9412 8.53493 23.5667 8.16956L22.17 9.60105C22.1749 9.60583 22.1669 9.59936 22.1582 9.57884C22.1494 9.55803 22.1445 9.53339 22.1449 9.50943C22.1452 9.4982 22.1465 9.48909 22.148 9.4825C22.1495 9.47595 22.1509 9.47272 22.1509 9.4728C22.1508 9.47291 22.1491 9.47672 22.1443 9.48381C22.1395 9.49091 22.1315 9.50139 22.1189 9.51451L23.5639 10.8973ZM22.9827 11.4329C23.1721 11.2689 23.3743 11.095 23.5632 10.898L22.1196 9.51382C22.0068 9.63144 21.8785 9.74352 21.6739 9.92062L22.9827 11.4329ZM22.7568 11.6297C22.8354 11.5604 22.9094 11.4963 22.9827 11.4329L21.6739 9.92062C21.6013 9.98347 21.5205 10.0533 21.434 10.1297L22.7568 11.6297ZM23.0751 10.4153C22.9726 10.3254 22.8775 10.2419 22.7784 10.1492L21.4124 11.6101C21.5383 11.7278 21.6565 11.8314 21.7568 11.9193L23.0751 10.4153ZM23.5536 10.8607C23.3902 10.6906 23.219 10.5413 23.0751 10.4153L21.7568 11.9193C21.9123 12.0556 22.0174 12.1486 22.1112 12.2462L23.5536 10.8607ZM23.5665 13.59C23.9375 13.2283 24.1502 12.7418 24.1401 12.218C24.1301 11.6999 23.905 11.2275 23.5546 10.8617L22.1103 12.2452C22.1378 12.274 22.1456 12.2912 22.146 12.292C22.1462 12.2924 22.1409 12.2801 22.1404 12.2567C22.14 12.2329 22.1448 12.2079 22.154 12.1862C22.163 12.1648 22.1721 12.1562 22.1702 12.1581L23.5665 13.59ZM20.8492 13.5184C21.1992 13.8683 21.6593 14.1117 22.1817 14.1347C22.7128 14.1582 23.1997 13.948 23.5667 13.5898L22.17 12.1583C22.1614 12.1667 22.1665 12.159 22.1887 12.1501C22.2117 12.1409 22.2405 12.1354 22.2698 12.1367C22.2834 12.1373 22.2945 12.1392 22.3026 12.1413C22.3106 12.1434 22.3145 12.1452 22.3142 12.1451C22.3137 12.1449 22.2949 12.1357 22.2631 12.1039L20.8492 13.5184ZM20.387 12.9829C20.5178 13.1441 20.6666 13.3284 20.8343 13.5032L22.2779 12.1191C22.1774 12.0143 22.0808 11.8961 21.9397 11.7224L20.387 12.9829ZM20.1628 12.7106C20.241 12.8032 20.3127 12.8915 20.387 12.9829L21.9397 11.7224C21.8667 11.6324 21.7834 11.5298 21.6911 11.4205L20.1628 12.7106ZM21.3828 13.0462C21.4683 12.9524 21.5556 12.8566 21.655 12.7511L20.1989 11.38C20.0869 11.4989 19.9895 11.6059 19.9045 11.6991L21.3828 13.0462ZM20.9266 13.5243C21.0919 13.366 21.2406 13.2022 21.3828 13.0462L19.9045 11.6991C19.7533 11.865 19.6507 11.977 19.5431 12.08L20.9266 13.5243ZM18.2153 13.5898C18.5848 13.9503 19.0735 14.1586 19.6079 14.1298C20.1268 14.1018 20.5789 13.8574 20.9266 13.5243L19.5431 12.08C19.4594 12.1603 19.4397 12.1359 19.5002 12.1327C19.5295 12.1311 19.5608 12.1362 19.5876 12.1469C19.6134 12.1571 19.6204 12.1665 19.612 12.1583L18.2153 13.5898ZM18.2461 10.8251C17.9004 11.1853 17.658 11.6533 17.638 12.1815C17.6174 12.7227 17.8359 13.2194 18.2151 13.5896L19.6122 12.1585C19.6043 12.1508 19.6129 12.1568 19.6226 12.18C19.6326 12.2039 19.6375 12.2317 19.6365 12.2573C19.6345 12.3116 19.6123 12.2899 19.6891 12.2099L18.2461 10.8251ZM18.6291 10.4446C18.5011 10.5686 18.3724 10.6931 18.2451 10.8261L19.69 12.2089C19.7865 12.1081 19.8874 12.0103 20.0206 11.8812L18.6291 10.4446ZM6.95059 8.9903C6.84148 8.9903 6.7379 8.98928 6.63281 8.98825L6.61307 10.9881C6.71702 10.9892 6.83014 10.9903 6.95059 10.9903V8.9903ZM5.94941 9.73808C5.95 9.81992 5.95059 9.90234 5.95059 9.9903H7.95059C7.95059 9.89407 7.94994 9.80473 7.94935 9.72362L5.94941 9.73808ZM5.96179 9.04335C5.94566 9.28529 5.9478 9.51662 5.94941 9.73808L7.94935 9.72362C7.94765 9.4881 7.947 9.33185 7.95736 9.17645L5.96179 9.04335ZM7.87622 7.19372C6.76099 7.17382 5.99404 8.05976 5.96013 9.07657L7.95902 9.14323C7.96044 9.10066 7.97232 9.11438 7.94126 9.14608C7.92687 9.16077 7.9076 9.17421 7.88546 9.18323C7.86305 9.19236 7.84624 9.19351 7.84053 9.19341L7.87622 7.19372ZM9.74766 9.09508C9.71428 8.07772 8.95954 7.19356 7.85838 7.19356V9.19356C7.85033 9.19356 7.83312 9.19168 7.81175 9.18259C7.79066 9.17361 7.77306 9.1608 7.76041 9.14761C7.73268 9.11872 7.74708 9.1103 7.74873 9.16065L9.74766 9.09508ZM9.75026 9.68134C9.75217 9.49432 9.75436 9.29616 9.74764 9.09454L7.74875 9.1612C7.75377 9.31172 7.75236 9.46571 7.75036 9.66089L9.75026 9.68134ZM9.74819 9.9903C9.74819 9.88404 9.74922 9.78333 9.75026 9.68135L7.75036 9.66089C7.74933 9.76173 7.74819 9.87231 7.74819 9.9903H9.74819ZM9.04142 8.98829C8.94194 8.98932 8.84617 8.9903 8.74819 8.9903V10.9903C8.8581 10.9903 8.96399 10.9892 9.06203 10.9882L9.04142 8.98829ZM9.64327 8.99082C9.43454 8.98409 9.22925 8.98636 9.04142 8.98829L9.06203 10.9882C9.25741 10.9862 9.41984 10.9847 9.57882 10.9898L9.64327 8.99082ZM11.5368 10.8797C11.5368 9.78374 10.6579 9.02462 9.64434 8.99085L9.57774 10.9897C9.62018 10.9912 9.60982 11.0031 9.58165 10.9759C9.56874 10.9635 9.55631 10.9463 9.54759 10.9258C9.53872 10.9049 9.53681 10.8879 9.53681 10.8797H11.5368ZM9.64434 12.7775C10.6647 12.7435 11.5368 11.9783 11.5368 10.8797H9.53681C9.53681 10.8761 9.53779 10.8621 9.54592 10.8427C9.55396 10.8236 9.56589 10.8066 9.57911 10.7938C9.6082 10.7655 9.62 10.7772 9.57774 10.7786L9.64434 12.7775ZM9.06345 12.7802C9.25126 12.7821 9.44416 12.7842 9.64434 12.7775L9.57775 10.7786C9.42836 10.7836 9.27925 10.7822 9.08363 10.7803L9.06345 12.7802ZM8.73921 12.778C8.85361 12.778 8.95897 12.7791 9.06345 12.7802L9.08363 10.7803C8.98003 10.7792 8.8651 10.778 8.73921 10.778V12.778ZM9.74123 12.0609C9.7402 11.9656 9.73921 11.8734 9.73921 11.778H7.73921C7.73921 11.8859 7.74033 11.9886 7.74135 12.0826L9.74123 12.0609ZM9.73861 12.63C9.74543 12.4323 9.74315 12.2382 9.74123 12.0609L7.74135 12.0826C7.74336 12.2681 7.74479 12.4164 7.7398 12.5611L9.73861 12.63ZM7.87561 14.5746C8.39271 14.5657 8.88063 14.3618 9.23356 13.9705C9.57868 13.5877 9.7316 13.0977 9.73909 12.611L7.73932 12.5802C7.73783 12.6774 7.71098 12.6724 7.74826 12.6311C7.76582 12.6116 7.78898 12.5948 7.81319 12.5842C7.83679 12.5739 7.84888 12.5748 7.84115 12.5749L7.87561 14.5746ZM5.9507 12.5923C5.95806 13.0928 6.1157 13.5958 6.47181 13.9843C6.83705 14.3828 7.34272 14.5837 7.87532 14.5746L7.84144 12.5749C7.83627 12.575 7.8511 12.5741 7.87736 12.585C7.90419 12.5962 7.92853 12.6137 7.94618 12.633C7.98322 12.6734 7.95211 12.6733 7.95048 12.5629L5.9507 12.5923ZM5.95059 11.778V12.5776H7.95059V11.778H5.95059ZM6.63217 12.7801C6.7372 12.7791 6.84112 12.778 6.95059 12.778V10.778C6.82974 10.778 6.71626 10.7792 6.61235 10.7802L6.63217 12.7801ZM6.02855 12.7775C6.2354 12.7842 6.43891 12.782 6.63217 12.7801L6.61235 10.7802C6.41121 10.7822 6.25043 10.7836 6.093 10.7786L6.02855 12.7775ZM4.15317 10.9255C4.17322 11.988 5.0274 12.726 6.00915 12.7767L6.11241 10.7794C6.07597 10.7775 6.08449 10.7674 6.109 10.791C6.12035 10.802 6.13207 10.8177 6.14076 10.8374C6.14963 10.8576 6.15258 10.8758 6.15281 10.8878L4.15317 10.9255ZM6.00188 8.99154C4.97229 9.043 4.11381 9.84787 4.15365 10.943L6.15233 10.8703C6.15268 10.88 6.1511 10.8977 6.14291 10.9189C6.13487 10.9397 6.12297 10.9575 6.11011 10.9707C6.08177 10.9998 6.06719 10.9908 6.1017 10.9891L6.00188 8.99154ZM6.63282 8.98825C6.43799 8.98632 6.2329 8.98415 6.02057 8.99079L6.08301 10.9898C6.24737 10.9847 6.41127 10.9862 6.61306 10.9881L6.63282 8.98825Z" fill="#E60000" mask="url(#path-1-inside-1_288_4682)"/>
</g>
</g>
<defs>
<filter id="filter0_b_288_4682" x="-11.354" y="-11.2007" width="51" height="43.7927" filterUnits="userSpaceOnUse" color-interpolation-filters="sRGB">
<feFlood flood-opacity="0" result="BackgroundImageFix"/>
<feGaussianBlur in="BackgroundImageFix" stdDeviation="6"/>
<feComposite in2="SourceAlpha" operator="in" result="effect1_backgroundBlur_288_4682"/>
<feBlend mode="normal" in="SourceGraphic" in2="effect1_backgroundBlur_288_4682" result="shape"/>
</filter>
<clipPath id="clip0_288_4682">
<rect width="27" height="19.8" fill="white" transform="translate(0.649902 0.800003)"/>
</clipPath>
</defs>
</svg>
