<svg width="28" height="21" viewBox="0 0 28 21" fill="none" xmlns="http://www.w3.org/2000/svg">
<g id="Frame" clip-path="url(#clip0_288_4672)">
<g id="Union" filter="url(#filter0_b_288_4672)">
<mask id="path-1-inside-1_288_4672" fill="white">
<path fill-rule="evenodd" clip-rule="evenodd" d="M23.8524 0.649994H14.0979H4.35253C3.36334 0.649994 3.08857 0.924085 3.08857 1.8834V12.2075C3.08857 13.1577 3.3725 13.4409 4.30674 13.4409H23.8524C24.7866 13.4409 25.0705 13.1577 25.0705 12.2075V1.8834C25.0705 0.933221 24.7866 0.649994 23.8524 0.649994ZM1.53151 20.75H14.0338H26.6368C26.8566 20.75 27.0947 20.7409 27.3054 20.6678C27.7908 20.5033 27.9374 20.1013 27.6901 19.6536C26.82 18.064 25.9407 16.4834 25.0615 14.9029L25.0614 14.9027C24.8507 14.5373 24.5485 14.3545 24.1272 14.3545H4.0228C3.60148 14.3545 3.29923 14.5373 3.09773 14.9027L3.09763 14.9029C2.21838 16.4834 1.33914 18.064 0.46905 19.6536C0.221753 20.1013 0.377459 20.5033 0.862894 20.6678C1.0644 20.7409 1.30253 20.75 1.53151 20.75ZM14.6474 18.9248C14.4551 18.9237 14.2627 18.9227 14.0704 18.9227C13.8784 18.9227 13.6864 18.9237 13.4941 18.9247C13.1084 18.9268 12.7213 18.9288 12.3302 18.9227C11.744 18.9136 11.341 18.5481 11.3318 18.0274C11.3227 17.4883 11.7348 17.1046 12.3485 17.1046C13.5025 17.0954 14.6657 17.0954 15.8198 17.1046C16.406 17.1137 16.809 17.4792 16.8181 17.9999C16.8273 18.5299 16.4151 18.9136 15.8015 18.9227C15.4168 18.9288 15.0321 18.9268 14.6474 18.9248Z"/>
</mask>
<path fill-rule="evenodd" clip-rule="evenodd" d="M23.8524 0.649994H14.0979H4.35253C3.36334 0.649994 3.08857 0.924085 3.08857 1.8834V12.2075C3.08857 13.1577 3.3725 13.4409 4.30674 13.4409H23.8524C24.7866 13.4409 25.0705 13.1577 25.0705 12.2075V1.8834C25.0705 0.933221 24.7866 0.649994 23.8524 0.649994ZM1.53151 20.75H14.0338H26.6368C26.8566 20.75 27.0947 20.7409 27.3054 20.6678C27.7908 20.5033 27.9374 20.1013 27.6901 19.6536C26.82 18.064 25.9407 16.4834 25.0615 14.9029L25.0614 14.9027C24.8507 14.5373 24.5485 14.3545 24.1272 14.3545H4.0228C3.60148 14.3545 3.29923 14.5373 3.09773 14.9027L3.09763 14.9029C2.21838 16.4834 1.33914 18.064 0.46905 19.6536C0.221753 20.1013 0.377459 20.5033 0.862894 20.6678C1.0644 20.7409 1.30253 20.75 1.53151 20.75ZM14.6474 18.9248C14.4551 18.9237 14.2627 18.9227 14.0704 18.9227C13.8784 18.9227 13.6864 18.9237 13.4941 18.9247C13.1084 18.9268 12.7213 18.9288 12.3302 18.9227C11.744 18.9136 11.341 18.5481 11.3318 18.0274C11.3227 17.4883 11.7348 17.1046 12.3485 17.1046C13.5025 17.0954 14.6657 17.0954 15.8198 17.1046C16.406 17.1137 16.809 17.4792 16.8181 17.9999C16.8273 18.5299 16.4151 18.9136 15.8015 18.9227C15.4168 18.9288 15.0321 18.9268 14.6474 18.9248Z" fill="#E60000"/>
<path d="M27.3054 20.6678L26.9845 19.7206L26.9776 19.723L27.3054 20.6678ZM27.6901 19.6536L26.8129 20.1338L26.8147 20.1372L27.6901 19.6536ZM25.0615 14.9029L24.1847 15.3837L24.1876 15.389L25.0615 14.9029ZM25.0614 14.9027L25.9382 14.4219L25.9331 14.4125L25.9278 14.4033L25.0614 14.9027ZM3.09773 14.9027L3.97156 15.389L3.97344 15.3856L3.09773 14.9027ZM3.09763 14.9029L2.22381 14.4167L2.22375 14.4168L3.09763 14.9029ZM0.46905 19.6536L1.34439 20.1372L1.34625 20.1338L0.46905 19.6536ZM0.862894 20.6678L1.20389 19.7277L1.19386 19.7241L1.18376 19.7206L0.862894 20.6678ZM14.6474 18.9248L14.6527 17.9248H14.6527L14.6474 18.9248ZM13.4941 18.9247L13.4888 17.9248H13.4888L13.4941 18.9247ZM12.3302 18.9227L12.3146 19.9226H12.3146L12.3302 18.9227ZM11.3318 18.0274L10.332 18.0443L10.332 18.0449L11.3318 18.0274ZM12.3485 17.1046V18.1046L12.3564 18.1046L12.3485 17.1046ZM15.8198 17.1046L15.8354 16.1047L15.8277 16.1046L15.8198 17.1046ZM16.8181 17.9999L17.818 17.9827L17.818 17.9824L16.8181 17.9999ZM15.8015 18.9227L15.7866 17.9228L15.7857 17.9228L15.8015 18.9227ZM14.0979 1.64999H23.8524V-0.350006H14.0979V1.64999ZM4.35253 1.64999H14.0979V-0.350006H4.35253V1.64999ZM4.08857 1.8834C4.08857 1.68102 4.10422 1.57876 4.11557 1.53455C4.12388 1.50215 4.11544 1.55659 4.04942 1.62127C3.98472 1.68466 3.93462 1.68922 3.97732 1.67868C4.02994 1.6657 4.14148 1.64999 4.35253 1.64999V-0.350006C3.8426 -0.350006 3.15165 -0.299039 2.64979 0.192634C2.14091 0.691182 2.08857 1.38317 2.08857 1.8834H4.08857ZM4.08857 12.2075V1.8834H2.08857V12.2075H4.08857ZM4.30674 12.4409C4.11427 12.4409 4.01687 12.4252 3.97574 12.4145C3.94553 12.4065 3.99633 12.4147 4.05782 12.4768C4.11873 12.5383 4.12504 12.5871 4.11598 12.5519C4.10433 12.5066 4.08857 12.4045 4.08857 12.2075H2.08857C2.08857 12.7137 2.14718 13.3898 2.63681 13.8842C3.12961 14.3818 3.806 14.4409 4.30674 14.4409V12.4409ZM23.8524 12.4409H4.30674V14.4409H23.8524V12.4409ZM24.0705 12.2075C24.0705 12.4045 24.0548 12.5066 24.0431 12.5519C24.0341 12.5871 24.0404 12.5383 24.1013 12.4768C24.1628 12.4147 24.2136 12.4065 24.1834 12.4145C24.1423 12.4252 24.0449 12.4409 23.8524 12.4409V14.4409C24.3531 14.4409 25.0295 14.3818 25.5223 13.8842C26.0119 13.3898 26.0705 12.7137 26.0705 12.2075H24.0705ZM24.0705 1.8834V12.2075H26.0705V1.8834H24.0705ZM23.8524 1.64999C24.0449 1.64999 24.1423 1.66566 24.1834 1.67644C24.2136 1.68435 24.1628 1.67616 24.1013 1.61407C24.0404 1.55257 24.0341 1.50384 24.0431 1.53903C24.0548 1.58431 24.0705 1.68638 24.0705 1.8834H26.0705C26.0705 1.37724 26.0119 0.701051 25.5223 0.206687C25.0295 -0.290883 24.3531 -0.350006 23.8524 -0.350006V1.64999ZM14.0338 19.75H1.53151V21.75H14.0338V19.75ZM26.6368 19.75H14.0338V21.75H26.6368V19.75ZM26.9776 19.723C26.9405 19.7359 26.8527 19.75 26.6368 19.75V21.75C26.8605 21.75 27.2489 21.7458 27.6332 21.6125L26.9776 19.723ZM26.8147 20.1372C26.8397 20.1824 26.7725 20.0856 26.8362 19.9157C26.9018 19.7408 27.0237 19.7074 26.9845 19.7206L27.6262 21.6149C28.0725 21.4637 28.5104 21.147 28.7088 20.6181C28.9053 20.0942 28.7877 19.5726 28.5654 19.1701L26.8147 20.1372ZM24.1876 15.389C25.0671 16.9701 25.9447 18.5476 26.8129 20.1338L28.5673 19.1735C27.6953 17.5803 26.8143 15.9968 25.9354 14.4168L24.1876 15.389ZM24.1846 15.3836L24.1847 15.3837L25.9383 14.4221L25.9382 14.4219L24.1846 15.3836ZM24.1272 15.3545C24.1601 15.3545 24.1753 15.3581 24.1775 15.3586C24.1787 15.3589 24.1729 15.3574 24.1644 15.3524C24.1561 15.3475 24.1539 15.3443 24.1579 15.3485C24.1625 15.3535 24.1759 15.369 24.195 15.4021L25.9278 14.4033C25.754 14.1018 25.5126 13.8261 25.1821 13.6307C24.8498 13.4343 24.4872 13.3545 24.1272 13.3545V15.3545ZM4.0228 15.3545H24.1272V13.3545H4.0228V15.3545ZM3.97344 15.3856C3.98983 15.3558 4.00078 15.3434 4.00282 15.3412C4.00418 15.3397 3.99967 15.3447 3.9895 15.3508C3.97928 15.3569 3.97218 15.3587 3.97297 15.3585C3.97472 15.3581 3.98976 15.3545 4.0228 15.3545V13.3545C3.66358 13.3545 3.29938 13.434 2.96617 13.6324C2.63363 13.8304 2.39231 14.111 2.22202 14.4199L3.97344 15.3856ZM3.97146 15.3891L3.97155 15.389L2.2239 14.4165L2.22381 14.4167L3.97146 15.3891ZM1.34625 20.1338C2.21442 18.5476 3.09199 16.9701 3.97151 15.389L2.22375 14.4168C1.34478 15.9968 0.463861 17.5803 -0.408149 19.1735L1.34625 20.1338ZM1.18376 19.7206C1.14139 19.7063 1.25784 19.736 1.32346 19.9051C1.38914 20.0744 1.32327 20.1754 1.34438 20.1372L-0.406278 19.1701C-0.632462 19.5796 -0.744135 20.1054 -0.541067 20.6287C-0.338053 21.1518 0.0989589 21.4648 0.542028 21.6149L1.18376 19.7206ZM1.53151 19.75C1.42649 19.75 1.3497 19.7476 1.28715 19.7413C1.22445 19.735 1.20193 19.727 1.20389 19.7277L0.5219 21.6078C0.906675 21.7474 1.30659 21.75 1.53151 21.75V19.75ZM14.0704 19.9227C14.2597 19.9227 14.4494 19.9237 14.6422 19.9247L14.6527 17.9248C14.4608 17.9238 14.2658 17.9227 14.0704 17.9227V19.9227ZM13.4993 19.9247C13.6921 19.9237 13.8815 19.9227 14.0704 19.9227V17.9227C13.8753 17.9227 13.6807 17.9237 13.4888 17.9248L13.4993 19.9247ZM12.3146 19.9226C12.7178 19.9289 13.1153 19.9268 13.4993 19.9247L13.4888 17.9248C13.1014 17.9268 12.7247 17.9288 12.3457 17.9228L12.3146 19.9226ZM10.332 18.0449C10.3413 18.573 10.5573 19.0608 10.9458 19.4103C11.3271 19.7534 11.8181 19.9149 12.3146 19.9226L12.3457 17.9228C12.256 17.9214 12.2525 17.8956 12.2835 17.9235C12.2979 17.9365 12.3121 17.9551 12.3218 17.9768C12.3315 17.9983 12.3317 18.0117 12.3317 18.0098L10.332 18.0449ZM12.3485 16.1046C11.8342 16.1046 11.3237 16.2674 10.9318 16.6258C10.532 16.9914 10.3227 17.5015 10.332 18.0443L12.3317 18.0104C12.3316 18.0064 12.3322 18.0198 12.3225 18.043C12.3127 18.0663 12.2975 18.0871 12.2814 18.1018C12.2466 18.1336 12.2491 18.1046 12.3485 18.1046V16.1046ZM15.8277 16.1046C14.6684 16.0954 13.4999 16.0954 12.3406 16.1046L12.3564 18.1046C13.5052 18.0955 14.6631 18.0955 15.8119 18.1046L15.8277 16.1046ZM17.818 17.9824C17.8087 17.4543 17.5927 16.9665 17.2042 16.617C16.8229 16.2739 16.3318 16.1124 15.8354 16.1047L15.8042 18.1045C15.894 18.1059 15.8975 18.1317 15.8665 18.1038C15.8521 18.0908 15.8378 18.0722 15.8281 18.0505C15.8185 18.029 15.8183 18.0156 15.8183 18.0175L17.818 17.9824ZM15.8164 19.9226C16.3266 19.915 16.8308 19.7489 17.2182 19.3946C17.6139 19.0328 17.8274 18.5268 17.818 17.9827L15.8183 18.0172C15.8183 18.0175 15.8182 18.0132 15.8197 18.0053C15.8212 17.9974 15.824 17.9873 15.8289 17.9758C15.8392 17.9515 15.8543 17.9317 15.8686 17.9186C15.8988 17.891 15.8901 17.9213 15.7866 17.9228L15.8164 19.9226ZM14.6421 19.9247C15.0251 19.9268 15.4203 19.9289 15.8173 19.9226L15.7857 17.9228C15.4133 17.9287 15.0391 17.9268 14.6527 17.9248L14.6421 19.9247Z" fill="#E60000" mask="url(#path-1-inside-1_288_4672)"/>
</g>
</g>
<defs>
<filter id="filter0_b_288_4672" x="-11.647" y="-11.35" width="51.4553" height="44.1" filterUnits="userSpaceOnUse" color-interpolation-filters="sRGB">
<feFlood flood-opacity="0" result="BackgroundImageFix"/>
<feGaussianBlur in="BackgroundImageFix" stdDeviation="6"/>
<feComposite in2="SourceAlpha" operator="in" result="effect1_backgroundBlur_288_4672"/>
<feBlend mode="normal" in="SourceGraphic" in2="effect1_backgroundBlur_288_4672" result="shape"/>
</filter>
<clipPath id="clip0_288_4672">
<rect width="27.45" height="20.1" fill="white" transform="translate(0.350098 0.649994)"/>
</clipPath>
</defs>
</svg>
