<svg width="114" height="18" viewBox="0 0 114 18" fill="none" xmlns="http://www.w3.org/2000/svg">
<g id="StreamVibe">
<path d="M0.5 6.42122C0.5 5.78894 0.61925 5.19573 0.857751 4.6416C1.09625 4.08746 1.41893 3.60437 1.82578 3.19232C2.23965 2.77317 2.72016 2.44282 3.26731 2.20127C3.81446 1.95973 4.40018 1.83896 5.0245 1.83896H11.948V4.89735H5.0245C4.81405 4.89735 4.61764 4.93643 4.43526 5.01457C4.25288 5.09272 4.09154 5.20284 3.95124 5.34492C3.81796 5.47991 3.71274 5.63975 3.63558 5.82446C3.55842 6.00918 3.51984 6.2081 3.51984 6.42122C3.51984 6.63435 3.55842 6.83683 3.63558 7.02864C3.71274 7.21335 3.81796 7.37675 3.95124 7.51884C4.09154 7.65382 4.25288 7.76038 4.43526 7.83853C4.61764 7.91668 4.81405 7.95575 5.0245 7.95575H8.04433C8.66864 7.95575 9.25437 8.07652 9.80152 8.31807C10.3557 8.55251 10.8362 8.87931 11.243 9.29846C11.6569 9.71051 11.9796 10.1972 12.2111 10.7584C12.4496 11.3125 12.5688 11.9057 12.5688 12.538C12.5688 13.1703 12.4496 13.7635 12.2111 14.3176C11.9796 14.8718 11.6569 15.3584 11.243 15.7776C10.8362 16.1896 10.3557 16.5164 9.80152 16.758C9.25437 16.9995 8.66864 17.1203 8.04433 17.1203H1.34177V14.0619H8.04433C8.25477 14.0619 8.45119 14.0228 8.63357 13.9447C8.81595 13.8665 8.97378 13.76 9.10706 13.625C9.24736 13.4829 9.35609 13.3195 9.43325 13.1348C9.51041 12.9501 9.54899 12.7511 9.54899 12.538C9.54899 12.3249 9.51041 12.126 9.43325 11.9413C9.35609 11.7565 9.24736 11.5967 9.10706 11.4617C8.97378 11.3196 8.81595 11.2095 8.63357 11.1314C8.45119 11.0532 8.25477 11.0141 8.04433 11.0141H5.0245C4.40018 11.0141 3.81446 10.8934 3.26731 10.6518C2.72016 10.4103 2.23965 10.0835 1.82578 9.67144C1.41893 9.25228 1.09625 8.76564 0.857751 8.21151C0.61925 7.65027 0.5 7.05351 0.5 6.42122Z" fill="white"/>
<path d="M19.7133 17.1203C19.0189 17.1203 18.3665 16.9889 17.7562 16.726C17.1459 16.456 16.6093 16.0902 16.1463 15.6284C15.6904 15.1595 15.3291 14.616 15.0626 13.998C14.803 13.3799 14.6732 12.7192 14.6732 12.0159V8.62711H13.2738V5.72856H14.6732V1.1676H17.5352V5.72856H21.8914V8.62711H17.5352V12.0159C17.5352 12.3213 17.5914 12.6091 17.7036 12.879C17.8158 13.1419 17.9702 13.3728 18.1666 13.5717C18.363 13.7706 18.5945 13.9305 18.861 14.0512C19.1276 14.1649 19.4117 14.2217 19.7133 14.2217H21.8914V17.1203H19.7133Z" fill="white"/>
<path d="M26.3843 17.1203H23.5118V5.70724H24.2062L25.1532 7.06061C25.6162 6.63435 26.1423 6.30756 26.7316 6.08022C27.3208 5.84578 27.9311 5.72856 28.5624 5.72856H31.0982V8.62711H28.5624C28.2608 8.62711 27.9767 8.68394 27.7101 8.79761C27.4435 8.91128 27.2121 9.06757 27.0156 9.26649C26.8192 9.46541 26.6649 9.69985 26.5527 9.96982C26.4404 10.2398 26.3843 10.5275 26.3843 10.833V17.1203Z" fill="white"/>
<path d="M36.7065 14.3283C36.8187 14.3638 36.931 14.3887 37.0432 14.4029C37.1554 14.41 37.2677 14.4136 37.3799 14.4136C37.6605 14.4136 37.9306 14.3745 38.1901 14.2963C38.4496 14.2182 38.6917 14.1081 38.9161 13.966C39.1476 13.8168 39.351 13.6392 39.5264 13.4332C39.7088 13.22 39.8561 12.9856 39.9683 12.7298L42.0727 14.8718C41.8062 15.2554 41.4975 15.6 41.1468 15.9055C40.8031 16.2109 40.4278 16.4702 40.0209 16.6834C39.6211 16.8965 39.1967 17.0563 38.7478 17.1629C38.3058 17.2766 37.8499 17.3334 37.3799 17.3334C36.5872 17.3334 35.8402 17.1842 35.1387 16.8858C34.4442 16.5875 33.834 16.1719 33.3078 15.639C32.7888 15.1062 32.3784 14.4739 32.0768 13.7422C31.7751 13.0034 31.6243 12.1935 31.6243 11.3125C31.6243 10.4103 31.7751 9.58619 32.0768 8.84024C32.3784 8.09429 32.7888 7.45845 33.3078 6.93273C33.834 6.40702 34.4442 5.99852 35.1387 5.70724C35.8402 5.41597 36.5872 5.27033 37.3799 5.27033C37.8499 5.27033 38.3093 5.32716 38.7583 5.44083C39.2072 5.5545 39.6316 5.7179 40.0315 5.93103C40.4383 6.14416 40.8171 6.40702 41.1678 6.7196C41.5186 7.02509 41.8272 7.36965 42.0938 7.75328L36.7065 14.3283ZM38.1796 8.32873C38.0463 8.279 37.913 8.24703 37.7797 8.23282C37.6535 8.21861 37.5202 8.21151 37.3799 8.21151C36.9871 8.21151 36.6153 8.2861 36.2646 8.43529C35.9208 8.57738 35.6192 8.7834 35.3597 9.05336C35.1071 9.32333 34.9072 9.65012 34.7599 10.0338C34.6126 10.4103 34.5389 10.8365 34.5389 11.3125C34.5389 11.4191 34.5424 11.5399 34.5495 11.6748C34.5635 11.8098 34.581 11.9484 34.6021 12.0904C34.6301 12.2254 34.6617 12.3569 34.6968 12.4847C34.7318 12.6126 34.7774 12.7263 34.8336 12.8257L38.1796 8.32873Z" fill="white"/>
<path d="M54.3731 17.1203H53.6786L52.5633 15.5538C52.2897 15.8024 51.9986 16.0369 51.6899 16.2571C51.3883 16.4702 51.0691 16.6585 50.7324 16.8219C50.3957 16.9782 50.0485 17.1025 49.6907 17.1949C49.34 17.2872 48.9822 17.3334 48.6175 17.3334C47.8248 17.3334 47.0777 17.1984 46.3763 16.9285C45.6818 16.6585 45.0715 16.2678 44.5454 15.7563C44.0263 15.2376 43.616 14.6054 43.3144 13.8594C43.0127 13.1135 42.8619 12.2645 42.8619 11.3125C42.8619 10.4245 43.0127 9.61105 43.3144 8.8722C43.616 8.12625 44.0263 7.48687 44.5454 6.95405C45.0715 6.42122 45.6818 6.00918 46.3763 5.7179C47.0777 5.41952 47.8248 5.27033 48.6175 5.27033C48.9822 5.27033 49.3435 5.31651 49.7013 5.40886C50.059 5.50122 50.4062 5.6291 50.7429 5.79249C51.0796 5.95589 51.3988 6.14771 51.7005 6.36794C52.0091 6.58818 52.2967 6.82617 52.5633 7.08192L53.6786 5.72856H54.3731V17.1203ZM51.4795 11.3125C51.4795 10.9147 51.4023 10.5311 51.248 10.1616C51.1007 9.78511 50.8973 9.45476 50.6377 9.17058C50.3782 8.87931 50.073 8.64842 49.7223 8.47792C49.3786 8.30031 49.0103 8.21151 48.6175 8.21151C48.2247 8.21151 47.8529 8.279 47.5021 8.41398C47.1584 8.54896 46.8568 8.74788 46.5972 9.01074C46.3447 9.2736 46.1448 9.60039 45.9975 9.99113C45.8502 10.3748 45.7765 10.8152 45.7765 11.3125C45.7765 11.8098 45.8502 12.2538 45.9975 12.6446C46.1448 13.0282 46.3447 13.3515 46.5972 13.6143C46.8568 13.8772 47.1584 14.0761 47.5021 14.2111C47.8529 14.3461 48.2247 14.4136 48.6175 14.4136C49.0103 14.4136 49.3786 14.3283 49.7223 14.1578C50.073 13.9802 50.3782 13.7493 50.6377 13.4651C50.8973 13.1739 51.1007 12.8435 51.248 12.4741C51.4023 12.0976 51.4795 11.7104 51.4795 11.3125Z" fill="white"/>
<path d="M70.9033 17.1203H68.0412V9.87391C68.0412 9.67499 68.0027 9.48673 67.9255 9.30912C67.8554 9.13151 67.7536 8.97522 67.6204 8.84024C67.4871 8.70525 67.3328 8.60224 67.1574 8.5312C66.982 8.45305 66.7961 8.41398 66.5997 8.41398C66.4033 8.41398 66.2174 8.45305 66.042 8.5312C65.8737 8.60224 65.7229 8.70525 65.5896 8.84024C65.4633 8.97522 65.3616 9.13151 65.2845 9.30912C65.2143 9.48673 65.1792 9.67499 65.1792 9.87391V17.1203H62.3067V9.87391C62.3067 9.67499 62.2681 9.48673 62.191 9.30912C62.1208 9.13151 62.0191 8.97522 61.8858 8.84024C61.7525 8.70525 61.5982 8.60224 61.4229 8.5312C61.2475 8.45305 61.0616 8.41398 60.8652 8.41398C60.6688 8.41398 60.4829 8.45305 60.3075 8.5312C60.1392 8.60224 59.9883 8.70525 59.8551 8.84024C59.7288 8.97522 59.6271 9.13151 59.5499 9.30912C59.4798 9.48673 59.4447 9.67499 59.4447 9.87391V17.1203H56.5722V5.70724H57.2666L58.0453 6.58107C58.4451 6.24006 58.8835 5.97721 59.3605 5.79249C59.8445 5.60068 60.3461 5.50477 60.8652 5.50477C61.3913 5.50477 61.9034 5.60423 62.4014 5.80315C62.9065 6.00207 63.3484 6.34663 63.7272 6.83683C63.9026 6.59528 64.1025 6.38926 64.3269 6.21875C64.5514 6.04825 64.7864 5.90972 65.0319 5.80315C65.2845 5.69659 65.544 5.62199 65.8106 5.57937C66.0771 5.52964 66.3402 5.50477 66.5997 5.50477C67.196 5.50477 67.7536 5.61844 68.2727 5.84578C68.7988 6.07311 69.2548 6.3857 69.6406 6.78354C70.0334 7.17428 70.3421 7.63606 70.5665 8.16888C70.791 8.7017 70.9033 9.27005 70.9033 9.87391V17.1203Z" fill="white"/>
<path d="M84.845 1.83896L79.8891 17.1203H76.8693L71.9344 1.83896H75.3646L78.3739 12.0372L81.3938 1.83896H84.845Z" fill="white"/>
<path d="M89.38 2.60622C89.38 2.87618 89.3274 3.12839 89.2222 3.36283C89.124 3.59727 88.9872 3.80329 88.8118 3.9809C88.6365 4.1514 88.4295 4.28994 88.191 4.3965C87.9595 4.49596 87.7105 4.54569 87.444 4.54569C87.1774 4.54569 86.9249 4.49596 86.6864 4.3965C86.4549 4.28994 86.2515 4.1514 86.0761 3.9809C85.9077 3.80329 85.771 3.59727 85.6657 3.36283C85.5675 3.12839 85.5184 2.87618 85.5184 2.60622C85.5184 2.34336 85.5675 2.09471 85.6657 1.86027C85.771 1.61872 85.9077 1.4127 86.0761 1.2422C86.2515 1.06459 86.4549 0.926055 86.6864 0.826595C86.9249 0.72003 87.1774 0.666748 87.444 0.666748C87.7105 0.666748 87.9595 0.72003 88.191 0.826595C88.4295 0.926055 88.6365 1.06459 88.8118 1.2422C88.9872 1.4127 89.124 1.61872 89.2222 1.86027C89.3274 2.09471 89.38 2.34336 89.38 2.60622ZM88.8855 17.1203H85.9919V5.70724H88.8855V17.1203Z" fill="white"/>
<path d="M102.364 11.3125C102.364 12.2077 102.213 13.0247 101.912 13.7635C101.61 14.5024 101.2 15.1382 100.681 15.671C100.162 16.1967 99.5514 16.6052 98.8499 16.8965C98.1554 17.1878 97.4084 17.3334 96.6087 17.3334C95.816 17.3334 95.069 17.1842 94.3675 16.8858C93.673 16.5875 93.0628 16.1719 92.5367 15.639C92.0176 15.1062 91.6072 14.4739 91.3056 13.7422C91.0039 13.0034 90.8531 12.1935 90.8531 11.3125V1.1676H93.7362V6.49582C93.8905 6.2969 94.0764 6.11929 94.2938 5.963C94.5183 5.8067 94.7568 5.67883 95.0093 5.57937C95.2689 5.47991 95.5354 5.40531 95.809 5.35558C96.0826 5.29875 96.3492 5.27033 96.6087 5.27033C97.4084 5.27033 98.1554 5.42307 98.8499 5.72856C99.5514 6.02694 100.162 6.44609 100.681 6.98602C101.2 7.52594 101.61 8.16533 101.912 8.90417C102.213 9.63592 102.364 10.4387 102.364 11.3125ZM99.4707 11.3125C99.4707 10.8721 99.3935 10.4636 99.2392 10.087C99.0919 9.70341 98.8885 9.37306 98.6289 9.09599C98.3694 8.81892 98.0642 8.60224 97.7135 8.44595C97.3698 8.28965 97.0015 8.21151 96.6087 8.21151C96.2159 8.21151 95.8441 8.30031 95.4934 8.47792C95.1496 8.64842 94.848 8.87931 94.5885 9.17058C94.3289 9.45476 94.1255 9.78511 93.9782 10.1616C93.8309 10.5311 93.7572 10.9147 93.7572 11.3125C93.7572 11.753 93.8309 12.1615 93.9782 12.538C94.1255 12.9145 94.3289 13.2413 94.5885 13.5184C94.848 13.7955 95.1496 14.0157 95.4934 14.1791C95.8441 14.3354 96.2159 14.4136 96.6087 14.4136C97.0015 14.4136 97.3698 14.3354 97.7135 14.1791C98.0642 14.0157 98.3694 13.7955 98.6289 13.5184C98.8885 13.2413 99.0919 12.9145 99.2392 12.538C99.3935 12.1615 99.4707 11.753 99.4707 11.3125Z" fill="white"/>
<path d="M108.446 14.3283C108.558 14.3638 108.671 14.3887 108.783 14.4029C108.895 14.41 109.007 14.4136 109.119 14.4136C109.4 14.4136 109.67 14.3745 109.93 14.2963C110.189 14.2182 110.431 14.1081 110.656 13.966C110.887 13.8168 111.091 13.6392 111.266 13.4332C111.448 13.22 111.596 12.9856 111.708 12.7298L113.812 14.8718C113.546 15.2554 113.237 15.6 112.886 15.9055C112.543 16.2109 112.167 16.4702 111.76 16.6834C111.361 16.8965 110.936 17.0563 110.487 17.1629C110.045 17.2766 109.589 17.3334 109.119 17.3334C108.327 17.3334 107.58 17.1842 106.878 16.8858C106.184 16.5875 105.574 16.1719 105.047 15.639C104.528 15.1062 104.118 14.4739 103.816 13.7422C103.515 13.0034 103.364 12.1935 103.364 11.3125C103.364 10.4103 103.515 9.58619 103.816 8.84024C104.118 8.09429 104.528 7.45845 105.047 6.93273C105.574 6.40702 106.184 5.99852 106.878 5.70724C107.58 5.41597 108.327 5.27033 109.119 5.27033C109.589 5.27033 110.049 5.32716 110.498 5.44083C110.947 5.5545 111.371 5.7179 111.771 5.93103C112.178 6.14416 112.557 6.40702 112.907 6.7196C113.258 7.02509 113.567 7.36965 113.833 7.75328L108.446 14.3283ZM109.919 8.32873C109.786 8.279 109.653 8.24703 109.519 8.23282C109.393 8.21861 109.26 8.21151 109.119 8.21151C108.727 8.21151 108.355 8.2861 108.004 8.43529C107.66 8.57738 107.359 8.7834 107.099 9.05336C106.847 9.32333 106.647 9.65012 106.499 10.0338C106.352 10.4103 106.278 10.8365 106.278 11.3125C106.278 11.4191 106.282 11.5399 106.289 11.6748C106.303 11.8098 106.321 11.9484 106.342 12.0904C106.37 12.2254 106.401 12.3569 106.436 12.4847C106.471 12.6126 106.517 12.7263 106.573 12.8257L109.919 8.32873Z" fill="white"/>
</g>
</svg>
