<svg width="50" height="50" viewBox="0 0 50 50" fill="none" xmlns="http://www.w3.org/2000/svg">
<path id="Vector" d="M41.4862 20.07C41.1363 9.11059 32.2559 0.266489 21.2596 0C20.9763 0 20.7431 0.216522 20.7431 0.499667L20.7264 7.86143C20.7264 8.22785 20.4432 8.51099 20.0766 8.52765C9.11363 8.86076 0.266578 17.7548 0 28.7475C0 29.0306 0.216594 29.2638 0.499833 29.2638L7.84738 29.2805C8.21393 29.2805 8.49717 29.5636 8.51383 29.93C8.86371 40.8894 17.7607 49.7335 28.7404 50C29.0237 50 29.2569 49.7835 29.2569 49.5003L29.2736 42.1386C29.2736 41.7722 29.5568 41.489 29.9234 41.4724C40.8864 41.1226 49.7334 32.2285 50 21.2525C50 20.9694 49.7834 20.7362 49.5002 20.7362L42.1526 20.7195C41.7861 20.7195 41.5028 20.4364 41.4862 20.07ZM28.5405 41.4224C22.3092 41.056 17.3109 35.9927 17.0776 29.7302C17.061 29.4637 16.8444 29.2472 16.5778 29.2472L9.24692 29.2305C8.86371 29.2305 8.56381 28.9141 8.58047 28.531C8.94702 22.3018 14.012 17.3051 20.2766 17.072C20.5431 17.0553 20.7597 16.8388 20.7597 16.5723L20.7764 9.22718C20.7764 8.8441 21.093 8.5443 21.4762 8.56096C27.7074 8.92738 32.7058 13.9907 32.939 20.2532C32.9557 20.5197 33.1723 20.7362 33.4389 20.7362L40.7697 20.7528C41.1529 20.7528 41.4528 21.0693 41.4362 21.4524C41.0696 27.8481 35.7547 32.928 29.2736 32.928L29.2569 40.7562C29.2403 41.1392 28.9237 41.439 28.5405 41.4224Z" fill="#E60000"/>
</svg>
