<svg width="27" height="20" viewBox="0 0 27 20" fill="none" xmlns="http://www.w3.org/2000/svg">
<g id="Frame" clip-path="url(#clip0_288_4660)">
<g id="Group">
<g id="Union" filter="url(#filter0_b_288_4660)">
<mask id="path-1-inside-1_288_4660" fill="white">
<path fill-rule="evenodd" clip-rule="evenodd" d="M0.10027 12.5093V12.8693C8.78096 12.8693 17.4031 12.8693 26.0586 12.8609V12.5009V1.23878C26.0586 0.451685 25.7071 0.100006 24.9034 0.100006H1.25546C0.443479 0.100006 0.10027 0.451685 0.10027 1.24715V12.5093ZM12.2932 8.72292C11.9432 8.92541 11.5907 9.12932 11.2337 9.33577V4.41226C12.1397 4.94002 13.0321 5.45421 13.9347 5.97426C14.4498 6.27106 14.9683 6.56978 15.4945 6.87401C14.4097 7.49858 13.3629 8.10414 12.2932 8.72292ZM22.008 17.3642C21.9252 17.1611 21.8405 16.9534 21.7559 16.7378H21.7566C22.8864 16.7378 23.9493 16.7378 24.9954 16.7294C25.5646 16.721 25.9999 16.4028 26.0251 15.8921C26.054 15.4059 26.0469 14.9158 26.0398 14.4216C26.0366 14.2008 26.0334 13.9792 26.0334 13.7569H0.0917969V15.532C0.0917969 16.3777 0.443378 16.7294 1.28047 16.7294H4.3861C4.1266 17.3825 3.88384 17.9854 3.64109 18.5883C3.54064 18.8562 3.49878 19.1242 3.83362 19.2498C4.16009 19.3754 4.31914 19.1577 4.42796 18.8897C4.50151 18.7082 4.57651 18.5275 4.65146 18.3468C4.83242 17.9106 5.01316 17.4749 5.17297 17.0308C5.26505 16.788 5.39062 16.7294 5.63338 16.7294C10.5974 16.7378 15.5613 16.7378 20.5253 16.7294C20.7848 16.7294 20.8937 16.8131 20.9774 17.0476C21.1673 17.5517 21.3699 18.043 21.5742 18.5383C21.604 18.6107 21.6339 18.6832 21.6638 18.7557C21.6847 18.8018 21.7035 18.8458 21.7224 18.8897C21.7412 18.9337 21.76 18.9776 21.781 19.0237C21.8898 19.2665 22.1158 19.3837 22.3167 19.2414C22.4506 19.1493 22.5678 18.8562 22.5176 18.7055C22.3725 18.2584 22.1952 17.8234 22.008 17.3642ZM16.2394 15.4064H13.0584C12.7072 15.4064 12.355 15.4055 12.0024 15.4046C11.2965 15.4027 10.5893 15.4008 9.88583 15.4064C9.60122 15.4064 9.32497 15.3729 9.3166 15.0129C9.30823 14.6444 9.58447 14.5691 9.8942 14.5691H16.2478C16.5491 14.5691 16.8337 14.6361 16.8337 15.0045C16.8337 15.3897 16.5324 15.4064 16.2394 15.4064Z"/>
</mask>
<path fill-rule="evenodd" clip-rule="evenodd" d="M0.10027 12.5093V12.8693C8.78096 12.8693 17.4031 12.8693 26.0586 12.8609V12.5009V1.23878C26.0586 0.451685 25.7071 0.100006 24.9034 0.100006H1.25546C0.443479 0.100006 0.10027 0.451685 0.10027 1.24715V12.5093ZM12.2932 8.72292C11.9432 8.92541 11.5907 9.12932 11.2337 9.33577V4.41226C12.1397 4.94002 13.0321 5.45421 13.9347 5.97426C14.4498 6.27106 14.9683 6.56978 15.4945 6.87401C14.4097 7.49858 13.3629 8.10414 12.2932 8.72292ZM22.008 17.3642C21.9252 17.1611 21.8405 16.9534 21.7559 16.7378H21.7566C22.8864 16.7378 23.9493 16.7378 24.9954 16.7294C25.5646 16.721 25.9999 16.4028 26.0251 15.8921C26.054 15.4059 26.0469 14.9158 26.0398 14.4216C26.0366 14.2008 26.0334 13.9792 26.0334 13.7569H0.0917969V15.532C0.0917969 16.3777 0.443378 16.7294 1.28047 16.7294H4.3861C4.1266 17.3825 3.88384 17.9854 3.64109 18.5883C3.54064 18.8562 3.49878 19.1242 3.83362 19.2498C4.16009 19.3754 4.31914 19.1577 4.42796 18.8897C4.50151 18.7082 4.57651 18.5275 4.65146 18.3468C4.83242 17.9106 5.01316 17.4749 5.17297 17.0308C5.26505 16.788 5.39062 16.7294 5.63338 16.7294C10.5974 16.7378 15.5613 16.7378 20.5253 16.7294C20.7848 16.7294 20.8937 16.8131 20.9774 17.0476C21.1673 17.5517 21.3699 18.043 21.5742 18.5383C21.604 18.6107 21.6339 18.6832 21.6638 18.7557C21.6847 18.8018 21.7035 18.8458 21.7224 18.8897C21.7412 18.9337 21.76 18.9776 21.781 19.0237C21.8898 19.2665 22.1158 19.3837 22.3167 19.2414C22.4506 19.1493 22.5678 18.8562 22.5176 18.7055C22.3725 18.2584 22.1952 17.8234 22.008 17.3642ZM16.2394 15.4064H13.0584C12.7072 15.4064 12.355 15.4055 12.0024 15.4046C11.2965 15.4027 10.5893 15.4008 9.88583 15.4064C9.60122 15.4064 9.32497 15.3729 9.3166 15.0129C9.30823 14.6444 9.58447 14.5691 9.8942 14.5691H16.2478C16.5491 14.5691 16.8337 14.6361 16.8337 15.0045C16.8337 15.3897 16.5324 15.4064 16.2394 15.4064Z" fill="#E60000"/>
<path d="M0.10027 12.8693H-0.89973V13.8693H0.10027V12.8693ZM26.0586 12.8609L26.0596 13.8609L27.0586 13.86V12.8609H26.0586ZM11.2337 9.33577H10.2337V11.0691L11.7342 10.2015L11.2337 9.33577ZM12.2932 8.72292L12.794 9.58852H12.794L12.2932 8.72292ZM11.2337 4.41226L11.737 3.54818L10.2337 2.67245V4.41226H11.2337ZM13.9347 5.97426L13.4355 6.84073L13.9347 5.97426ZM15.4945 6.87401L15.9934 7.74064L17.4955 6.87586L15.995 6.00831L15.4945 6.87401ZM21.7559 16.7378V15.7378H20.2888L20.8251 17.1033L21.7559 16.7378ZM22.008 17.3642L22.934 16.9867L22.934 16.9867L22.008 17.3642ZM24.9954 16.7294L25.0034 17.7294L25.0101 17.7293L24.9954 16.7294ZM26.0251 15.8921L25.0268 15.8327L25.0263 15.843L26.0251 15.8921ZM26.0398 14.4216L25.0399 14.436L25.0399 14.436L26.0398 14.4216ZM26.0334 13.7569H27.0334V12.7569H26.0334V13.7569ZM0.0917969 13.7569V12.7569H-0.908203V13.7569H0.0917969ZM4.3861 16.7294L5.31543 17.0986L5.85947 15.7294H4.3861V16.7294ZM3.64109 18.5883L2.71347 18.2148L2.70896 18.2259L2.70473 18.2372L3.64109 18.5883ZM3.83362 19.2498L4.1927 18.3164L4.18483 18.3135L3.83362 19.2498ZM4.42796 18.8897L5.35446 19.266L5.35473 19.2653L4.42796 18.8897ZM4.65146 18.3468L5.57513 18.73L5.57514 18.7299L4.65146 18.3468ZM5.17297 17.0308L4.23794 16.6763L4.23493 16.6842L4.23206 16.6922L5.17297 17.0308ZM5.63338 16.7294L5.63506 15.7294H5.63338V16.7294ZM20.5253 16.7294V15.7294L20.5236 15.7294L20.5253 16.7294ZM20.9774 17.0476L20.0356 17.3838L20.0385 17.392L20.0416 17.4001L20.9774 17.0476ZM21.5742 18.5383L20.6497 18.9196V18.9196L21.5742 18.5383ZM21.6638 18.7557L20.7391 19.1364L20.7459 19.153L20.7534 19.1695L21.6638 18.7557ZM21.7224 18.8897L22.6416 18.4959L22.6416 18.4959L21.7224 18.8897ZM21.781 19.0237L22.6935 18.6147L22.6914 18.61L21.781 19.0237ZM22.3167 19.2414L21.75 18.4174L21.7386 18.4254L22.3167 19.2414ZM22.5176 18.7055L21.5664 19.0142L21.5689 19.0216L22.5176 18.7055ZM12.0024 15.4046L11.9998 16.4046H11.9998L12.0024 15.4046ZM9.88583 15.4064V16.4064L9.89377 16.4064L9.88583 15.4064ZM9.3166 15.0129L8.31686 15.0356L8.31687 15.0361L9.3166 15.0129ZM1.10027 12.8693V12.5093H-0.89973V12.8693H1.10027ZM26.0577 11.8609C17.4027 11.8693 8.78104 11.8693 0.10027 11.8693V13.8693C8.78088 13.8693 17.4035 13.8693 26.0596 13.8609L26.0577 11.8609ZM25.0586 12.5009V12.8609H27.0586V12.5009H25.0586ZM25.0586 1.23878V12.5009H27.0586V1.23878H25.0586ZM24.9034 1.10001C25.036 1.10001 25.1032 1.11506 25.1268 1.12238C25.144 1.12772 25.1161 1.1217 25.0792 1.08518C25.0419 1.04834 25.034 1.01851 25.0379 1.03084C25.0439 1.04995 25.0586 1.11189 25.0586 1.23878H27.0586C27.0586 0.719509 26.9451 0.11777 26.4856 -0.336716C26.0287 -0.788756 25.4261 -0.899994 24.9034 -0.899994V1.10001ZM1.25546 1.10001H24.9034V-0.899994H1.25546V1.10001ZM1.10027 1.24715C1.10027 1.11532 1.11508 1.04991 1.12181 1.02821C1.12639 1.01342 1.11901 1.04385 1.08058 1.08229C1.04217 1.1207 1.01229 1.12757 1.02867 1.12249C1.0519 1.11529 1.11981 1.10001 1.25546 1.10001V-0.899994C0.731519 -0.899994 0.124334 -0.790024 -0.333833 -0.331729C-0.792119 0.126685 -0.89973 0.731995 -0.89973 1.24715H1.10027ZM1.10027 12.5093V1.24715H-0.89973V12.5093H1.10027ZM11.7342 10.2015C12.0914 9.99496 12.444 9.791 12.794 9.58852L11.7925 7.85732C11.4424 8.05982 11.0901 8.26367 10.7331 8.47006L11.7342 10.2015ZM10.2337 4.41226V9.33577H12.2337V4.41226H10.2337ZM14.4339 5.10779C13.531 4.58755 12.6406 4.07454 11.737 3.54818L10.7303 5.27635C11.6387 5.8055 12.5332 6.32086 13.4355 6.84073L14.4339 5.10779ZM15.995 6.00831C15.4681 5.70362 14.949 5.40453 14.4339 5.10779L13.4355 6.84073C13.9507 7.13759 14.4685 7.43593 14.9939 7.73972L15.995 6.00831ZM12.794 9.58852C13.8637 8.96966 14.9097 8.36462 15.9934 7.74064L14.9955 6.00739C13.9097 6.63255 12.862 7.23862 11.7925 7.85732L12.794 9.58852ZM20.8251 17.1033C20.9125 17.3259 20.9995 17.5394 21.082 17.7416L22.934 16.9867C22.8509 16.7829 22.7686 16.5809 22.6866 16.3722L20.8251 17.1033ZM21.7566 15.7378H21.7559V17.7378H21.7566V15.7378ZM24.9874 15.7294C23.946 15.7378 22.8872 15.7378 21.7566 15.7378V17.7378C22.8857 17.7378 23.9526 17.7378 25.0034 17.7294L24.9874 15.7294ZM25.0263 15.843C25.0268 15.8315 25.0311 15.805 25.0475 15.7738C25.0635 15.7432 25.0828 15.7236 25.095 15.714C25.1061 15.7052 25.1061 15.7087 25.0868 15.7149C25.0675 15.7211 25.0325 15.7287 24.9807 15.7295L25.0101 17.7293C25.9139 17.716 26.9643 17.1519 27.0238 15.9412L25.0263 15.843ZM25.0399 14.436C25.0471 14.9366 25.0532 15.3896 25.0268 15.8327L27.0233 15.9515C27.0548 15.4222 27.0467 14.8949 27.0397 14.4072L25.0399 14.436ZM25.0334 13.7569C25.0334 13.9876 25.0367 14.2164 25.0399 14.436L27.0397 14.4072C27.0365 14.1852 27.0334 13.9708 27.0334 13.7569H25.0334ZM0.0917969 14.7569H26.0334V12.7569H0.0917969V14.7569ZM1.0918 15.532V13.7569H-0.908203V15.532H1.0918ZM1.28047 15.7294C1.13592 15.7294 1.06214 15.7136 1.03465 15.7051C1.01459 15.699 1.04352 15.7047 1.08134 15.7428C1.11897 15.7806 1.12369 15.8085 1.11682 15.7858C1.10776 15.7559 1.0918 15.6794 1.0918 15.532H-0.908203C-0.908203 16.063 -0.802616 16.6846 -0.336895 17.1529C0.130207 17.6227 0.751376 17.7294 1.28047 17.7294V15.7294ZM4.3861 15.7294H1.28047V17.7294H4.3861V15.7294ZM4.56871 18.9618C4.81137 18.3591 5.05496 17.7542 5.31543 17.0986L3.45677 16.3602C3.19825 17.0108 2.95632 17.6116 2.71347 18.2148L4.56871 18.9618ZM4.18483 18.3135C4.21576 18.3251 4.30607 18.3657 4.3968 18.4681C4.4933 18.5771 4.54356 18.7033 4.56123 18.8124C4.57684 18.9087 4.56439 18.9725 4.56268 18.9812C4.56071 18.9911 4.56192 18.9807 4.57745 18.9393L2.70473 18.2372C2.64847 18.3873 2.52291 18.7371 2.58701 19.1324C2.62352 19.3576 2.71981 19.5912 2.8995 19.7941C3.07341 19.9905 3.28406 20.1117 3.48241 20.1861L4.18483 18.3135ZM3.50145 18.5134C3.48689 18.5493 3.48179 18.5551 3.48869 18.5441C3.49507 18.534 3.52939 18.4809 3.60387 18.4238C3.68711 18.36 3.80271 18.3053 3.93868 18.2903C4.06779 18.2759 4.15893 18.3035 4.19269 18.3165L3.47455 20.1831C3.91419 20.3522 4.41169 20.3247 4.82094 20.0108C5.13825 19.7675 5.28726 19.4315 5.35446 19.266L3.50145 18.5134ZM3.72779 17.9636C3.6531 18.1436 3.57653 18.3282 3.50118 18.5141L5.35473 19.2653C5.4265 19.0883 5.49992 18.9113 5.57513 18.73L3.72779 17.9636ZM4.23206 16.6922C4.08168 17.11 3.91027 17.5237 3.72779 17.9636L5.57514 18.7299C5.75456 18.2974 5.94464 17.8398 6.11389 17.3695L4.23206 16.6922ZM5.63338 15.7294C5.45671 15.7294 5.13634 15.7446 4.82315 15.937C4.48848 16.1427 4.32531 16.4459 4.23794 16.6763L6.108 17.3854C6.11272 17.373 6.05837 17.5254 5.87019 17.6411C5.7035 17.7435 5.56729 17.7294 5.63338 17.7294V15.7294ZM20.5236 15.7294C15.5608 15.7378 10.5979 15.7378 5.63506 15.7294L5.63169 17.7294C10.5968 17.7378 15.5619 17.7378 20.527 17.7294L20.5236 15.7294ZM21.9191 16.7113C21.8502 16.5182 21.7131 16.2123 21.3998 15.9877C21.084 15.7615 20.746 15.7294 20.5253 15.7294V17.7294C20.5642 17.7294 20.4103 17.7392 20.2348 17.6134C20.0617 17.4894 20.0208 17.3425 20.0356 17.3838L21.9191 16.7113ZM22.4986 18.1571C22.2934 17.6595 22.0967 17.1823 21.9132 16.6951L20.0416 17.4001C20.2378 17.921 20.4464 18.4266 20.6497 18.9196L22.4986 18.1571ZM22.5885 18.3751C22.5585 18.3021 22.5285 18.2294 22.4986 18.1571L20.6497 18.9196C20.6796 18.992 20.7093 19.0642 20.7391 19.1364L22.5885 18.3751ZM22.6416 18.4959C22.6233 18.4532 22.6003 18.3995 22.5742 18.342L20.7534 19.1695C20.7691 19.2041 20.7838 19.2383 20.8032 19.2836L22.6416 18.4959ZM22.6914 18.61C22.6756 18.5753 22.6609 18.5411 22.6416 18.4959L20.8032 19.2835C20.8215 19.3263 20.8445 19.3799 20.8706 19.4374L22.6914 18.61ZM21.7386 18.4254C21.8164 18.3703 21.9266 18.3206 22.0618 18.3068C22.1962 18.293 22.3189 18.3185 22.4168 18.3616C22.6019 18.4429 22.6733 18.5695 22.6935 18.6147L20.8684 19.4326C20.9975 19.7207 21.2363 20.0273 21.6118 20.1924C22.0299 20.3762 22.5088 20.3309 22.8948 20.0573L21.7386 18.4254ZM21.5689 19.0216C21.5184 18.87 21.5293 18.755 21.5334 18.7206C21.5388 18.6757 21.5481 18.6488 21.5526 18.6372C21.5574 18.6248 21.566 18.6054 21.5842 18.5784C21.5976 18.5588 21.6472 18.4881 21.7501 18.4174L22.8834 20.0654C23.1893 19.855 23.3473 19.5429 23.4198 19.3537C23.4867 19.1794 23.6022 18.7971 23.4663 18.3894L21.5689 19.0216ZM21.082 17.7416C21.2717 18.207 21.4346 18.6079 21.5665 19.0142L23.4688 18.3968C23.3104 17.9089 23.1187 17.4398 22.934 16.9867L21.082 17.7416ZM13.0584 16.4064H16.2394V14.4064H13.0584V16.4064ZM11.9998 16.4046C12.3521 16.4055 12.7056 16.4064 13.0584 16.4064V14.4064C12.7087 14.4064 12.3578 14.4055 12.0051 14.4046L11.9998 16.4046ZM9.89377 16.4064C10.5911 16.4008 11.293 16.4027 11.9998 16.4046L12.0051 14.4046C11.3 14.4027 10.5875 14.4008 9.87789 14.4064L9.89377 16.4064ZM8.31687 15.0361C8.3219 15.2523 8.36924 15.4981 8.50636 15.732C8.6478 15.9733 8.84618 16.1359 9.04678 16.2373C9.39008 16.4107 9.75621 16.4064 9.88583 16.4064V14.4064C9.85936 14.4064 9.84051 14.406 9.82646 14.4054C9.81237 14.4047 9.80757 14.404 9.80955 14.4042C9.81139 14.4045 9.82518 14.4064 9.84736 14.4124C9.86967 14.4186 9.90531 14.4303 9.94847 14.4521C10.0434 14.5 10.1533 14.5868 10.2317 14.7205C10.3058 14.8469 10.3155 14.9534 10.3163 14.9896L8.31687 15.0361ZM9.8942 13.5691C9.70102 13.5691 9.31934 13.5839 8.96659 13.7984C8.50923 14.0764 8.30584 14.5506 8.31686 15.0356L10.3163 14.9902C10.3171 15.0229 10.3128 15.1186 10.2534 15.2368C10.1907 15.3618 10.0964 15.4521 10.0056 15.5073C9.92492 15.5564 9.86341 15.5682 9.85398 15.5699C9.84322 15.5719 9.85321 15.5691 9.8942 15.5691V13.5691ZM16.2478 13.5691H9.8942V15.5691H16.2478V13.5691ZM17.8337 15.0045C17.8337 14.7836 17.7906 14.5393 17.6643 14.3056C17.5351 14.0664 17.3495 13.8955 17.1536 13.7825C16.8041 13.5808 16.4306 13.5691 16.2478 13.5691V15.5691C16.2901 15.5691 16.3023 15.5718 16.2948 15.5705C16.2886 15.5694 16.2313 15.5594 16.1539 15.5148C16.0669 15.4645 15.9713 15.3794 15.9048 15.2564C15.8413 15.1389 15.8337 15.0412 15.8337 15.0045H17.8337ZM16.2394 16.4064C16.3455 16.4064 16.7233 16.4178 17.0699 16.2558C17.2783 16.1584 17.4925 15.9939 17.6437 15.7373C17.7896 15.4895 17.8337 15.2289 17.8337 15.0045H15.8337C15.8337 14.9726 15.8401 14.8586 15.9204 14.7223C16.0059 14.5771 16.1265 14.4891 16.223 14.444C16.3048 14.4057 16.3598 14.4023 16.3472 14.4037C16.3364 14.4049 16.3099 14.4064 16.2394 14.4064V16.4064Z" fill="#E60000" mask="url(#path-1-inside-1_288_4660)"/>
</g>
</g>
</g>
<defs>
<filter id="filter0_b_288_4660" x="-11.9082" y="-11.9" width="49.9668" height="43.203" filterUnits="userSpaceOnUse" color-interpolation-filters="sRGB">
<feFlood flood-opacity="0" result="BackgroundImageFix"/>
<feGaussianBlur in="BackgroundImageFix" stdDeviation="6"/>
<feComposite in2="SourceAlpha" operator="in" result="effect1_backgroundBlur_288_4660"/>
<feBlend mode="normal" in="SourceGraphic" in2="effect1_backgroundBlur_288_4660" result="shape"/>
</filter>
<clipPath id="clip0_288_4660">
<rect width="25.95" height="19.2" fill="white" transform="translate(0.100098 0.100006)"/>
</clipPath>
</defs>
</svg>
