<svg width="26" height="20" viewBox="0 0 26 20" fill="none" xmlns="http://www.w3.org/2000/svg">
<g id="Frame" clip-path="url(#clip0_288_4692)">
<g id="Union" filter="url(#filter0_b_288_4692)">
<mask id="path-1-inside-1_288_4692" fill="white">
<path fill-rule="evenodd" clip-rule="evenodd" d="M12.4836 4.44563C12.7023 4.44475 12.9207 4.44388 13.1382 4.44388C13.3633 4.44388 13.5893 4.44475 13.8158 4.44562C14.2707 4.44737 14.7279 4.44913 15.1851 4.44388C15.8936 4.42814 16.2951 4.02685 16.303 3.31082C16.3108 2.68135 16.3108 2.05187 16.303 1.4224C16.303 0.674896 15.8857 0.25 15.1378 0.25H11.1622C10.4222 0.257868 10.0128 0.674896 10.0049 1.43027V3.27935C10.0049 4.03472 10.4064 4.43601 11.1701 4.44388C11.606 4.44913 12.0454 4.44738 12.4836 4.44563ZM21.3335 6.55262H13.1461H4.99802C3.50224 6.55262 2.67562 7.37881 2.65987 8.88955C2.652 9.5505 2.50242 9.7 1.849 9.7C1.81721 9.7 1.78632 9.69911 1.75571 9.69822C1.69536 9.69648 1.63615 9.69477 1.57346 9.7C0.990895 9.73934 0.565778 10.1485 0.557905 10.7386C0.550033 12.1392 0.550033 13.5477 0.565778 14.9482C0.565778 15.5541 0.998768 15.9633 1.61283 15.9948H2.00645C2.46306 16.0105 2.64413 16.1836 2.66775 16.64V16.994C2.69136 18.2687 3.56522 19.1343 4.84057 19.1421C5.864 19.15 6.88743 19.15 7.91086 19.1421C8.83194 19.1421 9.66643 18.8667 10.4065 18.3238C10.6702 18.1271 10.9319 17.9304 11.1937 17.7337C11.4555 17.537 11.7172 17.3403 11.981 17.1435C12.8076 16.5298 13.5318 16.5298 14.3585 17.1514C14.5939 17.3245 14.8279 17.5005 15.0623 17.677C15.3608 17.9017 15.6602 18.127 15.9645 18.3474C16.5077 18.7487 17.1139 19.0477 17.7988 19.0792C18.8253 19.1274 19.8578 19.1334 20.8911 19.1394C21.0386 19.1403 21.186 19.1411 21.3335 19.1421C22.7821 19.15 23.6402 18.3002 23.6481 16.8603C23.6559 16.1206 23.7819 15.9948 24.5219 15.9948C25.3485 15.9948 25.7579 15.5935 25.7579 14.7751V10.9196C25.7579 10.1013 25.3485 9.7 24.5219 9.7C23.7819 9.69213 23.6559 9.5741 23.6481 8.83447C23.6323 7.39454 22.7821 6.55262 21.3335 6.55262Z"/>
</mask>
<path fill-rule="evenodd" clip-rule="evenodd" d="M12.4836 4.44563C12.7023 4.44475 12.9207 4.44388 13.1382 4.44388C13.3633 4.44388 13.5893 4.44475 13.8158 4.44562C14.2707 4.44737 14.7279 4.44913 15.1851 4.44388C15.8936 4.42814 16.2951 4.02685 16.303 3.31082C16.3108 2.68135 16.3108 2.05187 16.303 1.4224C16.303 0.674896 15.8857 0.25 15.1378 0.25H11.1622C10.4222 0.257868 10.0128 0.674896 10.0049 1.43027V3.27935C10.0049 4.03472 10.4064 4.43601 11.1701 4.44388C11.606 4.44913 12.0454 4.44738 12.4836 4.44563ZM21.3335 6.55262H13.1461H4.99802C3.50224 6.55262 2.67562 7.37881 2.65987 8.88955C2.652 9.5505 2.50242 9.7 1.849 9.7C1.81721 9.7 1.78632 9.69911 1.75571 9.69822C1.69536 9.69648 1.63615 9.69477 1.57346 9.7C0.990895 9.73934 0.565778 10.1485 0.557905 10.7386C0.550033 12.1392 0.550033 13.5477 0.565778 14.9482C0.565778 15.5541 0.998768 15.9633 1.61283 15.9948H2.00645C2.46306 16.0105 2.64413 16.1836 2.66775 16.64V16.994C2.69136 18.2687 3.56522 19.1343 4.84057 19.1421C5.864 19.15 6.88743 19.15 7.91086 19.1421C8.83194 19.1421 9.66643 18.8667 10.4065 18.3238C10.6702 18.1271 10.9319 17.9304 11.1937 17.7337C11.4555 17.537 11.7172 17.3403 11.981 17.1435C12.8076 16.5298 13.5318 16.5298 14.3585 17.1514C14.5939 17.3245 14.8279 17.5005 15.0623 17.677C15.3608 17.9017 15.6602 18.127 15.9645 18.3474C16.5077 18.7487 17.1139 19.0477 17.7988 19.0792C18.8253 19.1274 19.8578 19.1334 20.8911 19.1394C21.0386 19.1403 21.186 19.1411 21.3335 19.1421C22.7821 19.15 23.6402 18.3002 23.6481 16.8603C23.6559 16.1206 23.7819 15.9948 24.5219 15.9948C25.3485 15.9948 25.7579 15.5935 25.7579 14.7751V10.9196C25.7579 10.1013 25.3485 9.7 24.5219 9.7C23.7819 9.69213 23.6559 9.5741 23.6481 8.83447C23.6323 7.39454 22.7821 6.55262 21.3335 6.55262Z" fill="#E60000"/>
<path d="M12.4836 4.44563L12.4876 5.44562H12.4876L12.4836 4.44563ZM13.8158 4.44562L13.812 5.44561L13.8158 4.44562ZM15.1851 4.44388L15.1966 5.44387L15.2073 5.44363L15.1851 4.44388ZM16.303 3.31082L15.303 3.29832L15.303 3.29983L16.303 3.31082ZM16.303 1.4224H15.3029L15.303 1.4349L16.303 1.4224ZM11.1622 0.25V-0.750057L11.1516 -0.749943L11.1622 0.25ZM10.0049 1.43027L9.00493 1.41984V1.43027H10.0049ZM11.1701 4.44388L11.1821 3.44395L11.1804 3.44393L11.1701 4.44388ZM2.65987 8.88955L3.6598 8.90146L3.65982 8.89997L2.65987 8.88955ZM1.75571 9.69822L1.72689 10.6978L1.7269 10.6978L1.75571 9.69822ZM1.57346 9.7L1.64084 10.6977L1.64866 10.6972L1.65647 10.6965L1.57346 9.7ZM0.557905 10.7386L-0.442035 10.7253L-0.442079 10.733L0.557905 10.7386ZM0.565778 14.9482H1.56584L1.56571 14.937L0.565778 14.9482ZM1.61283 15.9948L1.56164 16.9934L1.58722 16.9948H1.61283V15.9948ZM2.00645 15.9948L2.0409 14.9953L2.02368 14.9948H2.00645V15.9948ZM2.66775 16.64H3.66775V16.6141L3.66641 16.5883L2.66775 16.64ZM2.66775 16.994H1.66775V17.0033L1.66792 17.0126L2.66775 16.994ZM4.84057 19.1421L4.84825 18.1422L4.84674 18.1421L4.84057 19.1421ZM7.91086 19.1421V18.1421L7.90317 18.1422L7.91086 19.1421ZM10.4065 18.3238L10.998 19.1301L11.0043 19.1254L10.4065 18.3238ZM11.1937 17.7337L11.7945 18.5331L11.7945 18.5331L11.1937 17.7337ZM11.981 17.1435L11.3848 16.3406L11.3831 16.342L11.981 17.1435ZM14.3585 17.1514L13.7574 17.9507L13.7663 17.9572L14.3585 17.1514ZM15.0623 17.677L14.4609 18.476H14.4609L15.0623 17.677ZM15.9645 18.3474L16.5587 17.5431L16.551 17.5375L15.9645 18.3474ZM17.7988 19.0792L17.8457 18.0803L17.8447 18.0802L17.7988 19.0792ZM20.8911 19.1394L20.8969 18.1394H20.8969L20.8911 19.1394ZM21.3335 19.1421L21.3269 20.1421L21.3281 20.1421L21.3335 19.1421ZM23.6481 16.8603L22.6481 16.8496L22.6481 16.8548L23.6481 16.8603ZM24.5219 9.7L24.5113 10.7H24.5219V9.7ZM23.6481 8.83447L24.648 8.82382L24.648 8.82353L23.6481 8.83447ZM13.1382 3.44388C12.9184 3.44388 12.698 3.44476 12.4796 3.44563L12.4876 5.44562C12.7066 5.44474 12.923 5.44388 13.1382 5.44388V3.44388ZM13.8197 3.44563C13.5934 3.44476 13.3655 3.44388 13.1382 3.44388V5.44388C13.3611 5.44388 13.5851 5.44474 13.812 5.44561L13.8197 3.44563ZM15.1736 3.44395C14.7253 3.4491 14.2758 3.44739 13.8197 3.44563L13.812 5.44561C14.2656 5.44736 14.7304 5.44917 15.1966 5.44381L15.1736 3.44395ZM15.303 3.29983C15.3021 3.38783 15.2892 3.43369 15.2836 3.44938C15.279 3.4621 15.2806 3.45213 15.2962 3.43632C15.3118 3.42055 15.3218 3.41884 15.3094 3.42344C15.2941 3.42913 15.2492 3.44221 15.1629 3.44413L15.2073 5.44363C15.7433 5.43173 16.2969 5.26812 16.7173 4.8436C17.138 4.4188 17.297 3.86224 17.3029 3.32182L15.303 3.29983ZM15.303 1.4349C15.3108 2.05604 15.3108 2.67718 15.303 3.29832L17.3029 3.32333C17.3109 2.68552 17.3109 2.0477 17.3029 1.40989L15.303 1.4349ZM15.1378 1.25C15.2316 1.25 15.2812 1.26345 15.2992 1.26985C15.3139 1.27511 15.3051 1.27447 15.2904 1.25967C15.2759 1.24502 15.2763 1.23732 15.2824 1.25461C15.2895 1.27496 15.303 1.32697 15.303 1.4224H17.303C17.303 0.866765 17.1451 0.290015 16.7113 -0.147897C16.276 -0.58726 15.6986 -0.75 15.1378 -0.75V1.25ZM11.1622 1.25H15.1378V-0.75H11.1622V1.25ZM11.0049 1.44069C11.007 1.236 11.0599 1.22232 11.0229 1.26004C11.0084 1.27491 10.9991 1.27602 11.013 1.27096C11.0302 1.26466 11.0792 1.25094 11.1728 1.24994L11.1516 -0.749943C10.5981 -0.744059 10.0266 -0.580321 9.59508 -0.140402C9.16643 0.296639 9.01073 0.869161 9.00499 1.41984L11.0049 1.44069ZM11.0049 3.27935V1.43027H9.00493V3.27935H11.0049ZM11.1804 3.44393C11.0738 3.44284 11.0168 3.42815 10.9949 3.4205C10.9768 3.41421 10.9886 3.4152 11.0081 3.43464C11.0277 3.45427 11.03 3.46762 11.0251 3.45331C11.0188 3.43492 11.0049 3.38181 11.0049 3.27935H9.00493C9.00493 3.82752 9.1529 4.40814 9.59421 4.84922C10.0337 5.28852 10.6132 5.4382 11.1598 5.44383L11.1804 3.44393ZM12.4796 3.44563C12.04 3.44739 11.6086 3.44909 11.1821 3.44395L11.158 5.44381C11.6033 5.44917 12.0508 5.44736 12.4876 5.44562L12.4796 3.44563ZM13.1461 7.55262H21.3335V5.55262H13.1461V7.55262ZM4.99802 7.55262H13.1461V5.55262H4.99802V7.55262ZM3.65982 8.89997C3.66587 8.31948 3.82382 8.0188 3.98085 7.86185C4.13638 7.7064 4.43035 7.55262 4.99802 7.55262V5.55262C4.0699 5.55262 3.20267 5.81193 2.56701 6.44726C1.93286 7.08109 1.66962 7.94888 1.65993 8.87912L3.65982 8.89997ZM1.849 10.7C2.15267 10.7 2.76055 10.6926 3.20344 10.2499C3.64223 9.81135 3.65617 9.2063 3.6598 8.90146L1.65994 8.87764C1.65917 8.94291 1.65673 8.98999 1.65367 9.02363C1.65058 9.05771 1.64763 9.06892 1.64867 9.06449C1.65126 9.05358 1.6793 8.94558 1.7896 8.83534C1.90074 8.72425 2.01091 8.69524 2.0265 8.69166C2.03272 8.69024 2.02323 8.69289 1.99067 8.69552C1.95854 8.69812 1.91292 8.7 1.849 8.7V10.7ZM1.7269 10.6978C1.75544 10.6986 1.80052 10.7 1.849 10.7V8.7C1.83391 8.7 1.8172 8.69958 1.78453 8.69864L1.7269 10.6978ZM1.65647 10.6965C1.65292 10.6968 1.65461 10.6965 1.66573 10.6965C1.67896 10.6965 1.69435 10.6969 1.72689 10.6978L1.78454 8.69864C1.73135 8.6971 1.61751 8.69286 1.49045 8.70345L1.65647 10.6965ZM1.55782 10.752C1.55819 10.724 1.56306 10.7127 1.56307 10.7127C1.56328 10.7122 1.56299 10.7129 1.562 10.7144C1.56101 10.7159 1.55992 10.7172 1.55902 10.7181C1.55678 10.7204 1.5587 10.7174 1.56955 10.7127C1.58062 10.7078 1.60344 10.7002 1.64084 10.6977L1.50608 8.70227C0.448773 8.77367 -0.426597 9.57022 -0.442006 10.7253L1.55782 10.752ZM1.56571 14.937C1.55005 13.5438 1.55004 12.1412 1.55789 10.7443L-0.442079 10.733C-0.449971 12.1372 -0.449986 13.5516 -0.434159 14.9595L1.56571 14.937ZM1.66401 14.9961C1.56654 14.9911 1.54749 14.9614 1.56024 14.9739C1.56525 14.9789 1.56884 14.9849 1.57004 14.9879C1.5711 14.9905 1.56578 14.9795 1.56578 14.9482H-0.434222C-0.434222 15.5011 -0.230926 16.0175 0.157818 16.3999C0.540576 16.7763 1.04505 16.967 1.56164 16.9934L1.66401 14.9961ZM2.00645 14.9948H1.61283V16.9948H2.00645V14.9948ZM3.66641 16.5883C3.6497 16.2654 3.57048 15.7984 3.19627 15.4349C2.82469 15.0739 2.35836 15.0063 2.0409 14.9953L1.97201 16.9942C2.03101 16.9962 2.03197 17.0023 1.99989 16.9922C1.96039 16.9798 1.88163 16.9461 1.80267 16.8694C1.63905 16.7104 1.66217 16.5581 1.66908 16.6916L3.66641 16.5883ZM3.66775 16.994V16.64H1.66775V16.994H3.66775ZM4.84674 18.1421C4.43957 18.1396 4.16241 18.0047 3.988 17.8322C3.81343 17.6595 3.67513 17.3832 3.66757 16.9755L1.66792 17.0126C1.68398 17.8796 1.99442 18.6734 2.58152 19.2541C3.16877 19.835 3.96621 20.1368 4.8344 20.1421L4.84674 18.1421ZM7.90317 18.1422C6.88486 18.15 5.86656 18.15 4.84825 18.1422L4.83288 20.1421C5.86143 20.15 6.88999 20.15 7.91854 20.1421L7.90317 18.1422ZM9.81492 17.5175C9.24548 17.9353 8.61798 18.1421 7.91086 18.1421V20.1421C9.04591 20.1421 10.0874 19.7982 10.998 19.1301L9.81492 17.5175ZM10.5929 16.9342C10.3309 17.1311 10.0706 17.3268 9.80856 17.5222L11.0043 19.1254C11.2697 18.9274 11.5329 18.7296 11.7945 18.5331L10.5929 16.9342ZM11.3831 16.342C11.1177 16.5399 10.8545 16.7377 10.5929 16.9342L11.7945 18.5331C12.0565 18.3362 12.3168 18.1406 12.5788 17.9451L11.3831 16.342ZM14.9595 16.3522C14.4371 15.9594 13.8438 15.6859 13.1722 15.6842C12.5009 15.6825 11.9072 15.9528 11.3848 16.3407L12.5771 17.9464C12.8814 17.7205 13.0631 17.684 13.1672 17.6842C13.2711 17.6845 13.4532 17.7218 13.7574 17.9506L14.9595 16.3522ZM15.6637 16.878C15.43 16.7022 15.1915 16.5226 14.9507 16.3456L13.7663 17.9572C13.9963 18.1263 14.2257 18.2989 14.4609 18.476L15.6637 16.878ZM16.551 17.5375C16.2554 17.3234 15.9634 17.1037 15.6637 16.878L14.4609 18.476C14.7583 18.6998 15.0649 18.9306 15.3779 19.1573L16.551 17.5375ZM17.8447 18.0802C17.4314 18.0612 17.0143 17.8797 16.5587 17.5431L15.3703 19.1517C16.001 19.6177 16.7963 20.0342 17.7529 20.0781L17.8447 18.0802ZM20.8969 18.1394C19.8601 18.1334 18.8482 18.1274 17.8457 18.0803L17.7519 20.0781C18.8023 20.1274 19.8555 20.1334 20.8852 20.1394L20.8969 18.1394ZM21.3402 18.1422C21.1922 18.1412 21.0443 18.1403 20.8969 18.1394L20.8852 20.1394C21.0328 20.1403 21.1799 20.1411 21.3269 20.1421L21.3402 18.1422ZM22.6481 16.8548C22.6452 17.3774 22.4926 17.6705 22.3286 17.8324C22.1643 17.9946 21.8671 18.145 21.339 18.1421L21.3281 20.1421C22.2485 20.1471 23.1047 19.8766 23.7335 19.2558C24.3627 18.6348 24.643 17.7831 24.648 16.8657L22.6481 16.8548ZM24.5219 14.9948C24.3233 14.9948 24.0946 15.0018 23.8769 15.0457C23.6482 15.0917 23.3555 15.1929 23.1063 15.4401C22.8573 15.687 22.7536 15.9786 22.7055 16.2062C22.6596 16.4231 22.6502 16.6514 22.6481 16.8496L24.648 16.8709C24.6489 16.791 24.6512 16.7315 24.6546 16.6865C24.6563 16.6646 24.6581 16.6483 24.6596 16.6368C24.6604 16.6311 24.661 16.6268 24.6615 16.624C24.662 16.6211 24.6623 16.6197 24.6622 16.6198C24.6622 16.6199 24.6619 16.6215 24.6611 16.6246C24.6603 16.6277 24.6589 16.6324 24.657 16.6386C24.653 16.6507 24.6463 16.6693 24.6352 16.6924C24.612 16.741 24.5736 16.8017 24.5146 16.8602C24.4555 16.9188 24.3944 16.9568 24.3453 16.9797C24.322 16.9906 24.3032 16.9972 24.2909 17.0011C24.2787 17.0049 24.2717 17.0063 24.2717 17.0063C24.2717 17.0063 24.2768 17.0053 24.2883 17.0039C24.2998 17.0025 24.316 17.0009 24.3379 16.9994C24.3827 16.9965 24.4421 16.9948 24.5219 16.9948V14.9948ZM24.7579 14.7751C24.7579 15.03 24.695 15.0318 24.7481 14.9794C24.7984 14.9299 24.7884 14.9948 24.5219 14.9948V16.9948C25.082 16.9948 25.69 16.859 26.1517 16.4042C26.6161 15.9466 26.7579 15.3386 26.7579 14.7751H24.7579ZM24.7579 10.9196V14.7751H26.7579V10.9196H24.7579ZM24.5219 10.7C24.7884 10.7 24.7984 10.7649 24.7481 10.7153C24.695 10.663 24.7579 10.6647 24.7579 10.9196H26.7579C26.7579 10.3562 26.6161 9.74811 26.1517 9.29055C25.69 8.83577 25.082 8.7 24.5219 8.7V10.7ZM22.6481 8.84511C22.6502 9.04313 22.6596 9.27154 22.7057 9.48848C22.7543 9.71705 22.8589 10.0083 23.1091 10.2545C23.3581 10.4994 23.6492 10.5992 23.8739 10.6452C24.0884 10.6891 24.3149 10.6979 24.5113 10.6999L24.5325 8.70005C24.4516 8.69919 24.3912 8.69691 24.3451 8.69354C24.2983 8.69012 24.2778 8.68638 24.2747 8.68574C24.2718 8.68514 24.2997 8.69035 24.344 8.71096C24.3917 8.73317 24.4525 8.77048 24.5117 8.82876C24.5711 8.88719 24.6102 8.94814 24.634 8.99767C24.6453 9.02114 24.6523 9.04018 24.6564 9.05279C24.6604 9.06529 24.662 9.0725 24.662 9.07278C24.6621 9.07305 24.661 9.06815 24.6595 9.05679C24.658 9.04547 24.6563 9.02944 24.6546 9.00768C24.6512 8.96305 24.6489 8.90379 24.648 8.82382L22.6481 8.84511ZM21.3335 7.55262C21.8649 7.55262 22.1617 7.7035 22.3256 7.86527C22.4893 8.02681 22.6424 8.31959 22.6481 8.8454L24.648 8.82353C24.638 7.90942 24.3581 7.06128 23.7306 6.44187C23.1033 5.8227 22.2507 5.55262 21.3335 5.55262V7.55262Z" fill="#E60000" mask="url(#path-1-inside-1_288_4692)"/>
</g>
</g>
<defs>
<filter id="filter0_b_288_4692" x="-11.4473" y="-11.75" width="49.2051" height="42.898" filterUnits="userSpaceOnUse" color-interpolation-filters="sRGB">
<feFlood flood-opacity="0" result="BackgroundImageFix"/>
<feGaussianBlur in="BackgroundImageFix" stdDeviation="6"/>
<feComposite in2="SourceAlpha" operator="in" result="effect1_backgroundBlur_288_4692"/>
<feBlend mode="normal" in="SourceGraphic" in2="effect1_backgroundBlur_288_4692" result="shape"/>
</filter>
<clipPath id="clip0_288_4692">
<rect width="25.2" height="18.9" fill="white" transform="translate(0.550049 0.25)"/>
</clipPath>
</defs>
</svg>
